<?xml version="1.0" encoding="UTF-8"?>
<svg xmlns="http://www.w3.org/2000/svg" viewBox="0 0 732.86 312.83">
  <defs>
    <style>
      .cls-1 {
        font-size: 268.51px;
      }

      .cls-1, .cls-2 {
        font-family: KefaIII-Regular, 'Kefa III';
        font-variation-settings: 'wght' 400;
      }

      .cls-3 {
        fill: #ffa22a;
      }

      .cls-4 {
        fill: #f6feff;
        stroke: #000;
        stroke-miterlimit: 10;
        stroke-width: 2px;
      }

      .cls-5 {
        fill: #202020;
      }

      .cls-6 {
        fill: #006837;
      }

      .cls-2 {
        font-size: 221px;
      }
    </style>
  </defs>
  <g id="Text">
    <text class="cls-2" transform="translate(8.61 215.68) scale(.46 1)"><tspan x="0" y="0">De</tspan></text>
    <text class="cls-1" transform="translate(322.24 229.85) scale(.38 1)"><tspan x="0" y="0">History</tspan></text>
    <path class="cls-6" d="M3.19,69.14l.02-15.59-1.5,1.5c8.43-.09,16.86-.19,25.29-.28,1.93-.02,1.93-3.02,0-3-8.43.09-16.86.19-25.29.28-.81,0-1.5.68-1.5,1.5l-.02,15.59c0,1.93,3,1.93,3,0h0Z"/>
    <path class="cls-6" d="M0,77.67v11.54c0,1.93,3,1.93,3,0v-11.54c0-1.93-3-1.93-3,0h0Z"/>
    <g>
      <path class="cls-3" d="M1.78,95.8v11.81"/>
      <path class="cls-6" d="M.28,95.8v11.81c0,1.93,3,1.93,3,0v-11.81c0-1.93-3-1.93-3,0H.28Z"/>
    </g>
    <path class="cls-6" d="M.57,116.13v9.62c0,.78.69,1.54,1.5,1.5s1.5-.66,1.5-1.5v-9.62c0-.78-.69-1.54-1.5-1.5s-1.5.66-1.5,1.5h0Z"/>
    <path class="cls-6" d="M1.16,134.79c-.1,4.4-.07,8.8.07,13.19.06,1.93,3.06,1.93,3,0-.15-4.4-.17-8.79-.07-13.19.04-1.93-2.96-1.93-3,0h0Z"/>
    <path class="cls-6" d="M1.42,157.67v14.56c0,1.93,3,1.93,3,0v-14.56c0-1.93-3-1.93-3,0h0Z"/>
    <path class="cls-6" d="M1.55,184.02v12.36c0,1.93,3,1.93,3,0v-12.36c0-1.93-3-1.93-3,0h0Z"/>
    <path class="cls-6" d="M1.42,210.18v7.37c0,2.48-.14,5,0,7.48.07,1.38.92,2.29,2.32,2.31,1.2.02,2.43-.14,3.62-.21,2.48-.15,4.97-.29,7.45-.44,1.92-.11,1.93-3.11,0-3s-3.85.23-5.78.34c-.91.05-1.82.11-2.74.16s-1.98.24-2.92.12l.76.2-.05-.03.39.66c-.18-.47-.06-1.12-.06-1.62v-1.84c0-1.28,0-2.56,0-3.84v-7.68c0-1.93-2.99-1.93-2.99,0h0Z"/>
    <path class="cls-6" d="M27,226.49c2.84.14,5.68.05,8.5-.27.78-.09,1.54-.63,1.5-1.5-.03-.74-.66-1.59-1.5-1.5-2.82.32-5.66.41-8.5.27-.78-.04-1.54.72-1.5,1.5.04.85.66,1.46,1.5,1.5h0Z"/>
    <path class="cls-6" d="M82.14,224.06h7.93c.78,0,1.54-.69,1.5-1.5s-.66-1.5-1.5-1.5h-7.93c-.78,0-1.54.69-1.5,1.5s.66,1.5,1.5,1.5h0Z"/>
    <path class="cls-6" d="M98.11,224.24h10.77c.81,0,1.5-.69,1.5-1.5s-.69-1.5-1.5-1.5h-10.77c-.81,0-1.5.69-1.5,1.5s.69,1.5,1.5,1.5h0Z"/>
    <path class="cls-6" d="M122.81,224.17h6.04c1.05,0,2.1,0,3.14,0,1.16,0,2.4-.1,2.78-1.44.27-.96.2-2.11.25-3.11s.1-2.04.13-3.05c.07-2.08.08-4.16.05-6.23-.03-1.93-3.03-1.93-3,0s.01,3.99-.04,5.99c-.03.98-.07,1.96-.12,2.93-.03.49-.05.98-.08,1.46-.02.24-.03.49-.05.73,0,.12-.02.24-.03.37-.03.33-.02.33.01-.02l.54-.54c.32-.08.38-.11.16-.09h-.36c-.16,0-.32,0-.48,0h-1.33c-.85,0-1.69,0-2.54,0h-5.08c-1.93,0-1.93,2.99,0,2.99h0Z"/>
    <path class="cls-6" d="M134.2,194.02v-7.3c0-.78-.69-1.54-1.5-1.5s-1.5.66-1.5,1.5v7.3c0,.78.69,1.54,1.5,1.5s1.5-.66,1.5-1.5h0Z"/>
    <path class="cls-6" d="M133.16,171.9v-8.81c0-.78-.69-1.54-1.5-1.5s-1.5.66-1.5,1.5v8.81c0,.78.69,1.54,1.5,1.5s1.5-.66,1.5-1.5h0Z"/>
    <path class="cls-6" d="M133.16,147.77v-10.82c0-.81-.69-1.5-1.5-1.5s-1.5.69-1.5,1.5v10.82c0,.81.69,1.5,1.5,1.5s1.5-.69,1.5-1.5h0Z"/>
    <path class="cls-6" d="M131.68,118.08c0-3.94,0-7.88,0-11.82,0-1.93-3-1.93-3,0,0,3.94,0,7.88,0,11.82,0,1.93,3,1.93,3,0h0Z"/>
    <path class="cls-6" d="M131.65,93.17v-9.31c0-.78-.69-1.54-1.5-1.5s-1.5.66-1.5,1.5v9.31c0,.78.69,1.54,1.5,1.5s1.5-.66,1.5-1.5h0Z"/>
    <path class="cls-6" d="M132.93,68.78v-9.86c0-1.5.06-3.01-.03-4.51-.08-1.27-.16-3.04-1.19-3.96s-3.02-.55-4.33-.51c-1.56.05-3.12.11-4.67.18-3.23.15-6.47.36-9.69.62-1.91.15-1.93,3.15,0,3,2.81-.22,5.62-.41,8.44-.56,1.38-.07,2.76-.13,4.13-.18.41-.02,4.29,0,4.32-.13l-.3-.3c.06.21.11.42.15.63.06.29.1.59.12.88.05.59.06,1.19.06,1.79,0,1.38,0,2.76,0,4.14v8.77c0,1.93,2.99,1.93,2.99,0h0Z"/>
    <path class="cls-6" d="M91.1,54.77h8.04c.78,0,1.54-.69,1.5-1.5s-.66-1.5-1.5-1.5h-8.04c-.78,0-1.54.69-1.5,1.5s.66,1.5,1.5,1.5h0Z"/>
    <path class="cls-6" d="M65.98,54.87h11.16c1.93,0,1.93-3,0-3h-11.16c-1.93,0-1.93,3,0,3h0Z"/>
    <path class="cls-6" d="M36.99,54.39c2.86.1,5.72.07,8.57-.08.78-.04,1.54-.66,1.5-1.5-.03-.78-.66-1.55-1.5-1.5-2.85.15-5.71.18-8.57.08-.79-.03-1.54.71-1.5,1.5.04.84.66,1.47,1.5,1.5h0Z"/>
    <path class="cls-6" d="M47.9,224.56h7.93c.78,0,1.54-.69,1.5-1.5s-.66-1.5-1.5-1.5h-7.93c-.78,0-1.54.69-1.5,1.5s.66,1.5,1.5,1.5h0Z"/>
    <text class="cls-2" transform="translate(142.1 217.87) scale(.46 1)"><tspan x="0" y="0">sign</tspan></text>
  </g>
  <g id="Mouse">
    <g>
      <path class="cls-4" d="M30.5,254.82c.1.05.19.12.29.19.2.06.39.13.59.19.33-.17.72-.23,1.17-.11.16.05.32.1.48.15,0,0,0,0,0,0,0,0,.01,0,.02,0,.48.15.95.31,1.42.52.07.03.12.09.18.13.15.04.29.09.45.11,1.51.24,1.94,1.88,1.14,2.92-.39.51-.81.89-1.24,1.2,0,1.11-.6,2.26-1.19,3.14-.14.2-.29.39-.45.57-.63,2.9-1.96,5.69-3.78,8.18-.66,2.24,2.1,3.6,3.83,4.61,1.28.74,2.54,1.52,3.87,2.19,1.04.53,2.31,1.26,3.52,1.26.85,0,1.45.4,1.77.93,1.92.52,4.17,1.06,5.02.74,1.41-.52,5.38-9.88,5.6-11.92.33-3.07,5.16-4.98,7.55-2.49,2.79,2.89,8.02,4.19,12.32,5.15.18-1.2.33-2.4.35-3.65.05-2.83-1.19-5.52-1.04-8.38.19-3.58.92-8,2.98-11.23-.88-6.31.46-12.69-.56-19.03-.24-1.03-.46-2.07-.67-3.13-.32-1.58.37-2.81,1.49-3.61-.17-1.24-.35-2.48-.51-3.72-.16-1.22.2-2.23.86-2.99-.94-2.84-1.48-5.87-2.19-8.7-.43-.26-.86-.52-1.31-.76-.85.23-1.72.67-2.4.99-.5.24-1.06.49-1.63.77-.69,1.02-1.62,1.93-2.64,2.68,0,.65-.33,1.3-1.16,1.6-1.31.48-2.17,1.89-3.17,2.77-1.32,1.17-2.78,2.17-4.2,3.22-2.84,2.12-5.81,4.06-8.82,5.96-1.38.87-2.81,1.68-4.26,2.47-1.25,1.07-2.51,2.12-3.84,3.09-.82.6-1.72,1.06-2.63,1.52-.5.34-1.02.67-1.53,1-.28.22-.57.43-.86.64-.02,1.03-.56,2.03-1.47,2.71-3.9,2.91-7.45,6.16-11.2,9.24-.21.17-.43.33-.64.5-.16,1.21-.51,2.74.1,3.83.05.09.13.17.2.26,1.89.67,3.72,1.35,5.39,2.62.28.21.44.43.56.66.74.34,1.49.68,2.23,1.02Z"/>
      <path class="cls-4" d="M35.62,236.76l24.24-19.08c-8.06,6.01-16.54,12.12-24.24,19.08Z"/>
      <path class="cls-4" d="M72.82,207.47l-12.97,10.21c4.54-3.38,8.93-6.74,12.98-10.2,0,0-.01,0-.02,0Z"/>
      <path class="cls-4" d="M73.78,252.59c.29-8.08.63-16.19.62-24.22-.09-.44-.19-.87-.28-1.32-.17-.83-.05-1.55.25-2.18-.08-5.52-.36-10.99-.97-16.37v45.33c.11-.42.24-.84.38-1.25Z"/>
      <path class="cls-4" d="M38.66,256.26c-5.34-2.41-10.67-4.81-16.01-7.22"/>
      <path class="cls-4" d="M72.39,271.57c-5.3-2.41-10.6-4.81-15.9-7.22"/>
      <path class="cls-4" d="M38.66,256.26c-2.76,5.65-5.52,11.3-8.29,16.95"/>
      <path class="cls-4" d="M40.82,279.45l-6.78-3.08"/>
      <path class="cls-4" d="M50.79,275.07l-2.05,4.19"/>
      <path d="M74.5,218c1.96,3,.99,6.74.61,10.06-.47,4.19-.36,8.41-.36,12.61s-.45,8.32-.73,12.5c-.14,2.02-.11,4.06.3,6.06.21,1.04,1.35,3.3.45,4.21l2.56,1.06c-.05-1.14-.09-2.28-.14-3.43-.05-1.36-2.14-2.2-2.8-.76-.88,1.93-.93,3.88-.8,5.96.11,1.83.38,4.06-.9,5.56-1.12,1.31.26,3.1,1.82,2.36,4.44-2.12,4.74-7.26,4.45-11.56-.13-1.92-3.13-1.93-3,0,.21,3.22.46,7.33-2.97,8.97l1.82,2.36c1.39-1.63,1.87-3.58,1.87-5.69s-.6-4.45.3-6.43l-2.8-.76c.05,1.14.09,2.28.14,3.43.05,1.27,1.62,2.01,2.56,1.06,1.29-1.3,1.33-2.97.95-4.67-.47-2.15-.95-4.06-.9-6.29s.38-4.43.56-6.65.23-4.53.24-6.79c.01-4.53-.12-9.07.42-13.58.46-3.77,1.13-7.71-1.08-11.09-1.05-1.61-3.65-.11-2.59,1.51h0Z"/>
      <path d="M58.73,263.6c-3.91-.63-5.3,3.1-6.71,5.98-1.76,3.58-3.52,7.17-5.28,10.75l1.69-.69c-3.06-.68-6.07-1.58-8.99-2.72-1.54-.6-3.06-1.28-4.55-2.01-.67-.33-1.33-.67-1.98-1.03-.71-.38-1.21-.45-1.19-1.31.07-3.05,1-6.07,2.27-8.82.63-1.36,1.33-2.7,2.11-3.98.67-1.11,1.43-2.15,2.75-2.46,1.49-.34,1.37-2.49,0-2.89-3.22-.96-6.44-1.92-9.59-3.06-2.05-.74-5.99-1.66-6.73-4.07-.57-1.84-3.47-1.05-2.89.8.99,3.17,4.25,4.41,7.08,5.5,3.71,1.44,7.53,2.58,11.34,3.72v-2.89c-3.34.77-5.01,4.41-6.37,7.22-1.65,3.41-2.88,7.11-2.96,10.93-.04,1.94.83,2.89,2.48,3.79s3.44,1.77,5.22,2.53c3.62,1.55,7.36,2.77,11.21,3.63.61.14,1.4-.08,1.69-.69,1.4-2.85,2.8-5.71,4.2-8.56.68-1.39,1.36-2.78,2.05-4.17.41-.84,1.11-2.83,2.35-2.63,1.89.31,2.7-2.58.8-2.89h0Z"/>
      <path d="M22.34,248.95c2.86-3.04,5.6-6.27,8.64-9.12,1.43-1.34,3.03-2,4.78-2.79s3.42-1.9,4.95-3.13c3.16-2.54,5.82-5.61,9.07-8.06s6.4-4.42,9.7-6.47c3.89-2.41,7.74-4.87,11.54-7.44,1.59-1.08.09-3.68-1.51-2.59-6.65,4.51-13.71,8.42-20.2,13.14-3.31,2.4-6.17,5.16-9.16,7.94-1.49,1.38-3.1,2.59-4.9,3.53s-3.58,1.47-5.15,2.7c-1.7,1.32-3.12,2.98-4.58,4.54l-5.29,5.63c-1.32,1.41.8,3.53,2.12,2.12h0Z"/>
    </g>
  </g>
  <g id="Layer_4" data-name="Layer 4">
    <g>
      <path class="cls-5" d="M422.74,265.89c1.24.06.8-.37.99-.44-2.08.05-.94.55-.99.44Z"/>
      <polygon class="cls-5" points="402.2 266.43 402.57 266.26 399.53 266.62 402.2 266.43"/>
      <path class="cls-5" d="M383.01,266.03c1.8.75,6.95.03,10.37.35l.56.17,1.55-.54c-4.16,0-9.56.28-12.48.02Z"/>
      <path class="cls-5" d="M373.59,263.54c.23.21-.25.14-.3.13.02,0,.06.01.39.08.34.07.93.18,1.97.31-.2-.07-.26-.09-.37-.13-.36-.07-.87-.16-1.68-.39Z"/>
      <path class="cls-5" d="M375.28,263.93c1.8.28-1.13-.43,0,0h0Z"/>
      <path class="cls-5" d="M368.87,261.54c.11.06.25.11.36.15.02,0,.22.1.36.16l.44.22c-.06-.09-.2-.22-.36-.36-.08-.06-.16-.13-.24-.2l-.04-.08c-.05-.1-.06-.16.04-.15-.33-.14-.58-.19-.56.26Z"/>
      <path class="cls-5" d="M367.83,261.03c.12.17.26.3.4.42.02-.11-.03-.17-.4-.42Z"/>
      <path class="cls-5" d="M369.24,262.08c-.49-.24-.69-.34-1.01-.63-.06.14-.22.31.39.32-.12.03-.1.06,0,.1.06.02.13.04.23.07.04.01.09.03.14.04l.08.02c.05.02.11.05.16.07Z"/>
      <path class="cls-5" d="M370.31,262.84c1.02.68,2.62,1.36.35.73,2.08.81,3.15.8,2.99.67-.11-.19-1.46-.49-3.34-1.39Z"/>
      <path class="cls-5" d="M382.02,266.75l1.99.25,1.73-.21c-.86.1-3.84-.27-3.72-.04Z"/>
      <path class="cls-5" d="M376.41,257.92c.11-.19-.94-.17-1.17-.28l-1.73.75c.95-.2,2.71-.67,2.9-.46Z"/>
      <path class="cls-5" d="M375.24,257.63c.87-.36,1.76-.67,2.65-1.02-2.46.63-2.85.9-2.65,1.02Z"/>
      <path class="cls-5" d="M366.7,260.8c.33.45.68.81,1.05,1.09.2.13.36.26.56.36l.29.15.36.17c-.21-.1-.3-.15-.41-.21l-.34-.18c-.2-.15-.43-.28-.62-.48-.41-.37-.8-.85-1.09-1.43.07.18.12.36.2.53Z"/>
      <path class="cls-5" d="M386.95,255.78c-.52.17-1.03.39-1.54.58.91-.33,1.84-.63,2.77-.92l-1.23.34Z"/>
      <path class="cls-5" d="M394.16,254.98c-1.18.38,1.68.37.42.64,1.97-.18,3.64-.52,5.17-.8-1.62.19-3.35.24-5.59.16Z"/>
      <path class="cls-5" d="M402.32,254.41c-.82.09-1.66.24-2.57.42.86-.11,1.71-.23,2.57-.42Z"/>
      <path class="cls-5" d="M382.64,255.66c.24.06.69.18,2.28.05l-1.18-.25c-.34.06-.72.13-1.11.2Z"/>
      <path class="cls-5" d="M383.71,255.45h.04c1.21-.17,2.05-.29,2.41-.34-.31.04-1.05.15-2.45.34Z"/>
      <path class="cls-5" d="M382.36,255.71c.1-.02.18-.03.28-.05-.11-.02-.18-.02-.28.05Z"/>
      <path class="cls-5" d="M370.68,258.5c1.44-.86,4.72-2.2,1.37-1.44-1.03.71.85.21-1.37,1.44Z"/>
      <path class="cls-5" d="M380.89,255.45l-2.99.59c.09.09.65.11-.12.44,1.02-.37,2.06-.69,3.11-1.03Z"/>
      <polygon class="cls-5" points="382.33 255.03 380.89 255.45 382 255.27 382.33 255.03"/>
      <path class="cls-5" d="M397.02,254.22c1.32-.26,2.78-.33,4.43-.42-1.77-.02-3.6,0-5.33.11-.24.15-.98.43.9.31Z"/>
      <path class="cls-5" d="M390.51,254.59c.09-.02.21-.04.29-.05-.18-.02-.33-.02-.29.05Z"/>
      <path class="cls-5" d="M417.82,253.5c-.09-.03-.17-.05-.26-.07-.02.02-.03.05-.06.07h.32Z"/>
      <path class="cls-5" d="M395.82,253.85c-1.33-.01-2.11.17-2.85.35.98-.12,2.02-.23,3.15-.29.11-.07.12-.11-.3-.06Z"/>
      <path class="cls-5" d="M406.86,254.1c-.7-.08-1.49-.13-2.32-.19.68.12,2.07.3,2.32.19Z"/>
      <path class="cls-5" d="M391.25,254.62c-.06.01-.12.02-.19.04.44.05.38,0,.19-.04Z"/>
      <path class="cls-5" d="M391.25,254.62c.67-.13,1.19-.28,1.72-.41-.8.09-1.54.21-2.17.34.16.01.33.04.45.07Z"/>
      <path class="cls-5" d="M422.76,250.7c-.23.4-3.76.8-6.82.42-3,.34-1.01,1.61,1.61,2.31.09-.17.09-.33,3.17-.61-1.08-.2-6.85-.41-4.26-.81,4.09-.26,3.35.09,5.34.28-1.7-.48,5.19-.77,4.3-1.49l-3.58.29c-.07-.11,1.23-.31.23-.4Z"/>
      <path class="cls-5" d="M411.68,253.47l-1.27.07c1.45.05,2.49.19,4.4.47,2.11-.22,2.55-.38,2.69-.51l-6.25.04.43-.07Z"/>
      <path class="cls-5" d="M404.72,253.65c.97-.46,4.02-.69,2.14-1.13-3.72.11-2.6.41-4.81.66,5.98-.27-1.71.28,2.62.41-1.18.09-2.23.16-3.22.2,1.08.02,2.11.05,3.09.11-.05,0-.09-.02-.14-.02h-.03s0,0,0,0c-.26-.05-.35-.08-.05-.06.02,0,.09,0,.12-.01.04-.06.15-.11.27-.17,1.74.05.28.11-.27.17-.02.02-.07.04-.07.07h.02s6-.34,6-.34c-1.28-.04-2.87,0-5.69.11Z"/>
      <path class="cls-5" d="M374.78,255.17c.19-.02.19.02.21.04.36-.15.49-.23-.21-.04Z"/>
      <path class="cls-5" d="M377.23,254.76c-.41.17-.71.44-2.08.77-1.21.24-.06-.21-.16-.32-.79.37-2.74,1.21-.15.59.13-.06.26-.12.39-.18,2.35-.54,5.47-.66,5.07-.52-.76-.21-1.42-.37-3.07-.34Z"/>
      <path class="cls-5" d="M391.09,253.29c1.64-.23,3.29-.42,4.95-.59-.85-.08-1.71-.15-2.56-.2l.15.21c-2.84.12-2.2.38-2.53.57Z"/>
      <polygon class="cls-5" points="418.4 253.71 417.74 254.17 420.63 253.49 418.4 253.71"/>
      <polygon class="cls-5" points="424.91 253.58 424.67 253.97 426.39 253.72 424.91 253.58"/>
      <path class="cls-5" d="M383.59,235.63l1.47-.16c-.7.06-1.15.11-1.47.16Z"/>
      <path class="cls-5" d="M372.89,236.09l-.25.21c.49-.13.69-.22.25-.21Z"/>
      <path class="cls-5" d="M414.17,291.38c-2.15-.13-4.56-.56-4.27-.12l.69.38c1.47-.21,2.61-.2,3.58-.26Z"/>
      <path class="cls-5" d="M309.3,275.2c.08.2.16.4.24.6.42.35.83.66,1.19.92-.45-.44-.95-.95-1.43-1.52Z"/>
      <path class="cls-5" d="M306.94,274.74c-.39-.97-.75-1.94-.99-2.96.12.7.42,1.66.99,2.96Z"/>
      <path class="cls-5" d="M442.03,234.54l1.73-.42c-2.7-.03-1.51.21-1.73.42Z"/>
      <path class="cls-5" d="M489.11,261.42c1.48,1.04,2.24,1.91,2.27,2.13-.04-.2-.04-.32-.25-.62-.18-.27-.43-.53-.67-.76-.5-.46-1.04-.76-1.35-.75Z"/>
      <path class="cls-5" d="M379.58,240.41c.9-.12,1.28-.23,1.25-.32-.92.12-1.44.22-1.25.32Z"/>
      <path class="cls-5" d="M490.73,265.44c.19-.14.35-.28.5-.42.12-.19.18-.33.21-.42.04-.11.06-.22.07-.33.02-.23-.02-.47-.12-.71.03.27-.02.53-.1.76-.05.13-.06.2-.15.38-.1.21-.24.47-.41.75Z"/>
      <path class="cls-5" d="M652.6,238.78c.15-.02.33-.05.47-.05.03-.07-.17-.02-.47.05Z"/>
      <path class="cls-5" d="M689.52,200.92c.26.57.67,1.5,1.01,2.42-.13-.46-.43-1.2-1.01-2.42Z"/>
      <path class="cls-5" d="M451.05,253.96c-1.38-.01-.22.04,0,0h0Z"/>
      <path class="cls-5" d="M444.39,252.09c.29-.04.52-.1.56-.2-.12.1-.31.16-.56.2Z"/>
      <path class="cls-5" d="M480.92,274.48s-.07.03-.11.05c.41-.11.33-.1.11-.05Z"/>
      <path class="cls-5" d="M448.99,253.7c.52.06,1.11.12,1.76.18-.28-.04-.82-.1-1.76-.18Z"/>
      <path class="cls-5" d="M449.26,253.92c-.47-.03-.85-.05-1.2-.07-.18.07-.02.12,1.2.07Z"/>
      <path class="cls-5" d="M452.97,254c-.79-.02-1.52-.06-2.22-.11.27.04.38.07.31.08.4,0,.97.02,1.92.04Z"/>
      <path class="cls-5" d="M540.17,240.05c.09.02.19.04.29.06,1.4-.1.79-.11-.29-.06Z"/>
      <path class="cls-5" d="M378.37,296.75c.07,0,.1,0,.16-.01-.06,0-.15-.02-.21-.03l.04.04Z"/>
      <path class="cls-5" d="M373.34,296.81c2.17-.43,3.37-.3,4.98-.1l-1.58-1.34-3.4,1.43Z"/>
      <path class="cls-5" d="M409.21,234.85l-3.5-.34c4.21-.72,7.28-.5,3.98-1.02-.48,1.31-13.61.41-14.06,1.76l-2.31-.22c.66,0,.76-.09,1.42-.1-4.5-.5-3.3,1.09-9.08,1.09-2.02-.04-3.43-.19-2.06-.39l-4.47.53c-1.31.03-1-.22.3-.25l-6.83.43.05-.04c-.97.25-3.16.7-4.23.91-1.75-.09.86-.2.41-.34l-3.76.56c-1.56-.26,1.55-.79,4.17-.9-3.61-1.14-3.12.53-10.79.21l3.56-.39c-2.36-.63-5.12-.2-9.24-.33,1,.15,8.21.61,4.12,1.24-1.16-.02-2.7.04-4.9.51-.06-.48-2.23-.18-4.95.16l.11-.66c-2.94.53-2.67.85-4.36,1.37-3.29.43-4.06.12-4.92-.16-5.3.99,3.79.02-2.41,1.44-2.2.39-4.06.86-5.96,1.56-1.91.67-3.87,1.56-6.26,2.8-2.96,1.11.34-.59-.76-.28l-1.17.82-1.13.87c-.61.3-.49.06-.43-.06-1.01.62-.97.82-1.08,1.06-.11.25-.39.55-1.9,1.62-.21.58-1.94,1.38-3.89,2.78-1.94,1.37-4.09,3.45-5.02,5.71-.79.9-.03-.69-.43-.52-1.57,2.99-1.79,4.5-2.04,5.76-.05.32-.1.63-.14.96-.01.33-.03.69-.05,1.08-.03.39,0,.84.04,1.35.02.51.1,1.09.22,1.76-.05,1.53.13,3.09.51,4.6-.45-3.42.97.81,3.35,3.42-.41-1.06-.64-1.98-.82-2.58.86,1.59,1.96,3.04,3.21,4.33.33.57-.17.3-.96-.23.28.25.55.49.76.68,1.16,1.59.2,1.15-1.03.26-.36-.61-.65-1.25-.92-1.86-1.12-.91-2.1-1.95-2.3-1.5.24.31.66.93,1.13,1.59-.3-.26-.51-.42-.47-.24.06.2.5.67,1.21,1.35.07.5.16,1.01.28,1.51l.43.07c1.58,2.08,3.52,3.91,5.65,5.43,2.57,1.17,5.06,1.85,7.89,2.46,2.83.61,6,1.15,10.06,1.93-2.12.05-.63.73-.88,1.32-2.04-1.17-6.36-1.21-10.49-2.94,2.14.88,1.58.96.98.87,2.57.71,5.13,1.22,7.68,1.65-.29.45,1.5.78,3.42,1.4-1.25-1.31,5.74.58,8.86.92.13.37-.68.58-4.39-.33,3.96,1.67,5.55-.06,9.49,1.29-.92-.15-1.4-.29-1.79-.19,2.19.08,7.38,1.24,6.11,1.31l-.92-.15c1.51.33,3.45.54,5.5.83,2.05.26,4.22.56,6.24.73,4.04.26,7.44.34,7.93-.04.05.12-.89.95-1.28,1.08l2.8-.45c.93-.16,1.87-.37,2.8-.56l5.54-1.14c-1,.68,2.66,2.61-2.49,2.76.73.09,1.56.19,2.58.26,1.03.07,2.26.11,3.82-.02-1.01-.11-2.47-1.08-1.1-1.13,3.74.85,2.6.46,7.24,1.2-1.51-.17.17-1.29,2.54-1.25-.37.18.21,1.14-.66,1.25,1.97-.4,3.94-.87,5.89-1.3-1.47.25-.23.96,1.11,1.23-.31-.1.97-.14,2.53-.17,1.56,0,3.39-.19,4.17-.28l-2.52-.06c3.34-.18,4.97-.71,6.56-1.24.8-.27,1.6-.54,2.6-.78,1.01-.24,2.21-.52,3.85-.71-.76.33-1.8,1.67,1.57,1.38.73-.38,2.34-1.29,4.46-2.24,2.11-1.01,4.72-2.18,7.52-2.89l1.16.13c1.44-.35,2.86-.83,4.27-1.29-.63.37-1.55.86-2.65,1.43-1.11.51-2.39,1.07-3.73,1.64-1.34.57-2.73,1.14-4.05,1.67-.66.26-1.3.52-1.91.73-.61.19-1.19.37-1.71.53,2.52-.08.76.35,4.46-.33,1.36.06-1.94.85-3.04,1,2.9-.38,5.79-.87,8.69-1.31-.26-.32,1.38-.7,2.98-1.26,1.61-.53,3.22-1.04,3-1.28-1.52.46-3.03.96-4.56,1.38l-4.62,1.17c-.25-.3,1.02-1.01,3.11-1.76.52-.19,1.09-.38,1.71-.57.61-.22,1.25-.44,1.93-.65,1.35-.42,2.82-.82,4.33-1.14,1.59-.09-.87,1.43-.7,1.62.74-.41,5.63-1.73,6.2-1.81-.81.35-1.62.73-2.45,1.03,3.42-.62,5.19-2.39,9.36-2.89.35-.09.79-.15,1.27-.21.47-.08.97-.16,1.43-.23.92-.15,1.69-.3,1.74-.53-2.46.04-3.59-2.08-2.33-3.12.47-.13,7.25-1.68,8.88-1.96,1.19-.16.51.5-.22,1.18-.73.67-1.55,1.27-.5,1.2.03-.18,1.15-.88,1.62-1.16,1.45-.43-.37.77,2.62-.55.25-.84,6.16-2.48,1.21-1.12,1.44-.7,2.23-.99,3.1-1.28.88-.28,1.8-.64,3.48-1.47-1.25.12,2.38-2.81,5.13-4.36-.09.24.65.13,1.01.07,2.85-1.55,5.07-2.69,7.25-3.81,1.08-.56,2.18-1.07,3.26-1.85,1.05-.77,2.19-1.67,2.88-3.24.22-.24.59-1.2.59-1.98,0-.76-.08-1.32.28-.59-.36-1.03-1.15-1.95-2.72-3.12-.68-.68-.82-.84-.63-.78.18.06.67.37,1.18.76,1,.71,2.08,2.19,1.19.5-.24,0-1.39-.92-2.77-1.59-1.37-.74-3.04-1.56-4.31-2.03.12.22.53.51,1.09.87.57.35,1.32.71,2.09,1.17,1.54.83,3.46,1.8,4.34,3.35-.19.09-.53-.15-1.04-.47-.51-.33-1.19-.71-2.08-1.1-1.81-.75-4.26-1.88-7.17-2.89-2.29-.85-2.77-1.09-2.74-1.25.02-.15.54-.14.11-.22-4.38-1.58-6.46-1.5-8.24-1.58-1.81-.02-3.37-.07-7.17-.8-3-.86-.03-1.08-.67-1.53,4.09.23,6.17,1.13,8.87,1.65-1.09-.3-2.19-.61-3.3-.86,1.31,0,4.02.41,5.43.92-1.2-.54-5.11-1.43-9.67-1.94-4.55-.54-9.71-.78-13.34-1.13-1.3.13-3.54.26-2.49.5h2.31c2.1.5-4.35.46-1.44.75-3.09.2-6.56.6-10.89.31l-.81-.62c.09.18,2.84.4,4.06.23-1.81.24-6.66-.91-8.65-.11l3.04.44c-3.1.29-6.93.94-10.77.77,1.75.6.89-.08,3.62.62-2.37-.89,9.83.05,6.03-.88,2.8.84,4.85.38,8.5,1.15-.11-.2-1.29-.42,1.93-.25.15-.06.49-.12.71-.16.1,0,.13.01.22.02-.06-.01-.11-.02-.18-.03.14-.03.15-.03-.07,0-.76-.11-1.38-.23-1.63-.35,1.61-.44,6.74-.27,8.48-.43,1.9.18-.81.2.23.46l2.6-.24c.24.45,4.99,1.04.52,1.04,1.34.08,2.67.18,4,.28,2.33.42,5.49.89,7.46,1.02,1.82.36,4.69.36,3.05.38,2.02.33,4.04.69,6.01,1.22l.02.12c2.86.92,5.78,1.91,8.58,3.4,1.33.76,2.98,1.67,3.52,2.44.24.29.34.68.28,1.04-.03.18-.1.35-.2.49-.09.14-.21.24-.43.46-.34.56-.94,1.2-1.8,1.84-.43.32-.93.63-1.59.99-.64.35-1.33.73-2.11,1.12h-.79c-1.14.71-2.94,1.61-4.55,2.44-1.62.83-3.13,1.44-3.55,1.89-.77.08-1.89.46-3.2,1.01-1.32.53-2.8,1.34-4.41,1.98-1.59.7-3.23,1.41-4.75,2.08-1.52.65-2.89,1.29-4.04,1.6v.53c-1.53.52-3.03,1.07-4.6,1.68-1.58.59-3.22,1.33-5.15,1.94l.37.36c-1.63.66-3.81,1.2-6.25,1.77-.61.14-1.23.29-1.87.44-.64.12-1.3.24-1.96.36-1.32.25-2.67.53-4.02.85.33-.25,1.7-.52,2.69-.64-3.33.23-6.65,1.27-9.98,2-3.31.8-6.55,1.69-9.58,1.64-1.46.35-2.54.43-3.59.45.14-.02.26-.04.36-.07-.15.02-.38.04-.61.07-.66,0-1.34.02-2.08.03.63.03,1.23.04,1.75.02-1.14.16-2.86.44-4.56.66l-.77-.42c-.14.02-.25.03-.39.04-1.69-.04-1.33.33-.4.62-.85.15-1.63.3-2.24.47-1.42-.67-4.47.65-6.38-.16-.57.22-2.72.37-4.84.57-1.06.1-2.11.22-2.96.36-.85.11-1.48.25-1.71.47-.06-.11-.57-.17.36-.17-1.92-.12-3.83-.23-5.55-.01l-.8-.62c-1.4.27-2.8.53-4.21.7-2.53-.51-3.56-.78-1.03-1.12-3.05.2-4.29.2-5.42.21-.56,0-1.1,0-1.82.04-.72,0-1.62.02-2.93.08l.29-.37c-1.84-.16-4.85.09-5.93-.34-1.01-.26-2.79-.6-5.04-.97-2.25-.39-5-.69-7.92-1.21-2.92-.54-6.04-1.07-9.07-1.69-3.01-.71-5.94-1.44-8.49-2.17.88.78-.31.42-1.77-.11-1.46-.52-3.17-1.18-3.49-.8-.52-.43-1.86-.98-.18-.75-2.59-.59-4.41-1.35-6-2.05-1.59-.72-2.93-1.36-4.63-1.94-.35-.53,1.13.21.78-.2-.38-.14-1.49-.63-1.81-1.06-.32-.42.72.23,1.46.53-2.16-1.3-3.24-2.06-4.07-2.37-.79-.33-1.25-.2-1.67-.07-1.54-2.23-2.22-3.27-3.58-4.74-.11-.47-.19-1.1-.13-1.22.09-.13.27.25,1.05,1.63-.42-.78-1.54-3.31-1.69-5.75-.23-2.43.36-4.66.07-4.83.12-.26.36-.83.55-1.42.21-.58.44-1.14.5-1.38.94-1.81,1.7-2.66,2.37-3.54.73-.84,1.44-1.69,2.95-3.08l-.91.7c.67-1.69,2.45-2.47,5.24-4.32l-.04.12c3.47-1.69,4.26-2,4.98-2.41.37-.19.72-.41,1.46-.67.73-.28,1.84-.66,3.7-1.13l-.55-.31c.17-.61,1.86-1.03,4.03-1.38,2.17-.37,4.82-.63,6.99-1.22-.55,0-1.1,0-1.65.03,2.37-.86,6.99.23,9.43.1.54.03-.82.23-1.55.4,6.44-.12.75-.74,5.52-1.37.92.26-1.06.96,2.17.74,1.61.11,9.35-1.75,13.84-1.36-1-.2-1.98-.4.25-.73,3.45-.34,9.38.52,12.46-.46.44.05.61.11.63.18,2.63-.36,8.57-.66,10.15-1.17,2.48,1.52,16.42-1.19,16.39.33l8.13-.16-.21.16c5.2.04,7.03-.3,8.86-.67,1.2.11.32.25.22.33,7.6.31,8.35.26,14.73-.43l.66.5c1.73-.29,10.97.94,18.43.54-.07.05-.23.15-.82.2,8.4-.38,20.01,1.99,23.15.3l5.55-.22c-7.15-.43,1.1-.74-1.84-1.16,2.82.01,7.26.84,3.79.79l-.54-.11c-1.31.88,8.88.7,8.66,1.35,14.08.58,27.77,1.85,40.95,2.64l-1.48-.82,4.6.3c1.2.24,1.59.66-1.69.45,1.7.51,5.52-.03,5.63-.18,6.41.67-2.56.7-.59.84l2.68.1-.6-.12c2.19-.17,2.4-.48,6.34-.21,2.49.29,1.25.53,2.23.61,0,.05.32.1,1.51.11l5.79.4-2.28-.71c2.59-.13,5.45.35,2.81-.46,3.86,1.27,21.62,1.56,24.02,1.93,3.62-.27,7.18-.13,11.6.04-1.09-.15-1.73-.81,2.07-.64-1.42,1.31,6.96.74,10.03,1.69-1.38-.33,1.34-.34,3.85-.43,2.52-.07,4.83-.23,2.67-.65,3.18.07.2.5,2.62.79,7.56-.64,16.77-.1,26.15-1.62.12-.2-1.48-.24.48-.78,1.68.04,3.38.07,5.07.04,1.83-.46,1.49-1.29,4.96-1.47-.51-.04-1.26-.09-.05-.43,4.56-.87,9.09-2.2,13.48-4.01,4.38-1.78,8.7-4.16,12.48-7.23,3.78-3.04,7.15-6.87,9.14-11.56.98-2.34,1.57-4.88,1.64-7.47.08-2.59-.36-5.15-.97-7.55.47,2.69-.05.93-.75-.94.38,1.25-.42.12-.55.44-.72-2.59-1.66-5.07-2.52-7.49-.59-.5-1.46-2.37-2.13-4.17-.35-.9-.6-1.79-.86-2.49-.21-.7-.41-1.22-.61-1.38.21.75.41,1.5.69,2.23-.81-1.39-.91-.26-.88,1.31.06,1.55.37,3.46-.17,3.42,1.11,1.55,1.87,3.88,2.71,6.43.84,2.57,1.65,5.25,2.67,7.9,0,1.24-.48-.99-.59-.3.64,1.29.99,3.07.26,6.11l-.05-.37c-.83,4.3-2.83,7.01-5.08,9.45-2.34,2.4-5.16,4.61-9.67,7.06.3.02.59.02.89.02-1.96,1.06-2.46,1.12-3.44,1.47-1,.87.43.24,1.85-.5,1.43-.72,2.81-1.59,2.01-.63-.76.18-2,.75-3.51,1.41-.74.35-1.59.69-2.45,1.05-.86.38-1.76.75-2.67,1.09-1.8.72-3.62,1.3-5.11,1.71-1.51.37-2.69.58-3.25.45-3.36.88,1.13.27-2.24,1.15-.32-.01-.64-.03-.97-.07l-.77.57c-2.25.47-3.47.29-3.59.07.55-.08,1.54-.36,2.1-.52-2.95.32-8.19,1.62-9.23,1.62,1.11-.1,2.24-.18,3.35-.31-9.38,1.88-21.17,1.95-30.49,2.61l.71.21c-7.14.45-5.72-.2-13.56-.1l.29-.05c-1.57.19-3.67.27-5.82.18,1.99-.21-3.71-.61-1.11-.83-7.76.2-3.84.23-8.99.87l-1.17-.42c-1.76.26-1.91.44-5.84.35,3.23-.16-2.47-.68,1.15-.93-8.18-1.2-12.25.19-15.96-1.21-3.84.81,7.09.97,4.96,1.07,1.75.43-3.16.59-5.74.34-2.63-.17-4.39-1.57-11.01-1.94.66.04.71-.03,1.36.01-2.46-.41-4.87.07-7.88-.53-1.74.52-3.94-.27-4.48.5l6.08.17c-3.45,0-6.73.74-12.37-.03.45-.13,2.15-.25,3.31-.3-1.64-.33-3.2-.03-4.9-.36.53-.76,7.39.24,11.11-.14-1.76-.44-7.01.17-5.1-.58-2.73.94-6.51-.51-11.04.07l.32-.46c-.71.03-2.2.18-3.5.1l2.4-.49c-3.66.33-6.97-.84-10.47-.74,7.29.38,1.61.66,4.67,1.17-9.02.14-5.1-1.52-15.18-1.81,1.37,0,5.1.54,2.96.66-1.91-.2-4.43-.51-5.6-.82-6.68-.21,1,.54-1.85.69-2.24-.68-3.29.08-6.22.13v-.48c-7.59-.66-2.06.9-8.89.24l2.92-.55-3.58.03.76-.52c-3.9.25-5.11.09-8.91-.21.87.37-.53.86-3.9.75-2.29-.37,1.3-.41-3.48-.51,1.09-.26,2.28-.6,4.35-.08.22-.15,1.07-.26,1.3-.41-2.46-.42-6.22-.29-7.95-.35.67.04,1.46.1,1.87.18l-6.95.45c-1.09-.21-.22-.33.65-.45-1.41.01-2.38.21-4.45.19.54-.38.43-.78,3.36-.89l-6.62.25c-.44-.19-3.38-.56-2.52-.68-3.66-.29-9,.56-13.85.2-.25.07-.76.14-1.79.18-4.56-.14-8.6-.68-14.02-.13l-3.07-.71c-4.24.15,4.16.89-2.9,1.15-4.99.26-1.87-.59-3.62-.77-2.48.39-6.79,1.11-11.39.64,1.52-.17,2.71-.08,4.13-.14ZM356.98,237.26c1.01-.18,3-.61,3.76-.37-1.12.63-2.02.4-3.76.37ZM313.95,281.57c-.71-.36-1.62-1.2-2.44-2.3.72.68,1.53,1.45,2.44,2.3ZM466.02,254.43s.07,0,.11-.01c2.17.43,1.4.26-.11.01ZM461.46,253.83c-.47.03-.44.1-.25.19.33-.1,1.37-.04,2.53.1-.32-.15-.9-.3-2.28-.28ZM554.73,244.15l-.9-.18c2.06-.02,1.48.07.9.18Z"/>
      <path class="cls-5" d="M307.24,274.83c-.09-.31-.03-.43.01-.54-.26-.35-.36-.31-.01.54Z"/>
      <path class="cls-5" d="M441.71,234.62h.16c.09-.02.13-.05.16-.08l-.32.08Z"/>
      <path class="cls-5" d="M464.58,283.9c-.93.31-1.46.43-1.84.46,0,.13.45.1,1.84-.46Z"/>
      <path class="cls-5" d="M436.8,253.95l2.99-.11c-1.44.01-1.96-.1-2.69-.18.07.11.64.28-.3.28Z"/>
      <path class="cls-5" d="M410.79,251.19c-.44.07-.93.02-1.36.09l.12.22c1.87-.04,3.17-.24,1.24-.31Z"/>
      <path class="cls-5" d="M434.04,252.34c-.24-.41-2.12-.27-4.21-.18.13,0,.25,0,.37,0-.62.57,1.62.37,3.84.19Z"/>
      <path class="cls-5" d="M429.34,252.17c-.65.02-1.31.04-1.94.02-.24.23.79.04,1.94-.02Z"/>
      <path class="cls-5" d="M455.58,253.78c-.99-.14-.64.5-1.19.31-1.12.46,6.6-.34,1.19-.31Z"/>
      <polygon class="cls-5" points="432.34 251 433.09 251.5 434.27 251.1 432.34 251"/>
      <path class="cls-5" d="M448.91,251.54l-3.35-.21c.05.08-.38.13-.9.15,2.07.05,4.33.21,4.25.06Z"/>
      <path class="cls-5" d="M444.66,251.49c-1.08-.03-2.1-.03-2.7.04.58,0,1.84,0,2.7-.04Z"/>
      <polygon class="cls-5" points="436.93 250.86 437.92 250.97 440.29 251.02 436.93 250.86"/>
      <path class="cls-5" d="M484.23,256.78c.57.2,1.13.42,1.69.67.55.24,1.12.45,1.66.73.41.02-.41-.56-1.69-1.06-.83-.29-2.12-.7-1.66-.35Z"/>
      <path class="cls-5" d="M473.98,252.34c.96.29,1,.43,1.52.71l.24-.58c-.59-.04-1.17-.11-1.76-.13Z"/>
      <path class="cls-5" d="M484.44,255.23c.42-.08,5.2,1.8.82-.16-.42-.01-3.97-1.24-.82.16Z"/>
      <polygon class="cls-5" points="458.64 284.25 459.52 283.93 459.05 283.02 458.64 284.25"/>
      <path class="cls-5" d="M411.36,296.84c4.4-.12.98-.66,4.95-.83.99-.37-3.24.16-2.22-.18-2.61.48-4.01.44-2.74,1.01Z"/>
      <path class="cls-5" d="M414.1,295.83c.42-.09.86-.2,1.32-.32-.75.16-1.1.25-1.32.32Z"/>
      <path class="cls-5" d="M686.02,191.47c-.12-.42-.22-.84-.3-1.26-.08-.42-.2-.83-.24-1.24,0,.55.09,1.11.13,1.67.12.28.28.55.42.83Z"/>
      <path class="cls-5" d="M684.09,186.89c.19-.23.36-.45.57-.66l-.66-1.45c.07.57.14,1.65.1,2.11Z"/>
      <path class="cls-5" d="M349.06,236.61l-.2.18c.45.13,1.12.06,2.44-.03l-2.24-.15Z"/>
      <polygon class="cls-5" points="387.09 234.88 386.43 234.88 387.67 235.43 387.09 234.88"/>
      <path class="cls-5" d="M418.94,233.5c-1.3-.01-2.83.13-4.14.12,2.84-.13,4.49.61,4.14-.12Z"/>
    </g>
  </g>
  <g id="Layer_5" data-name="Layer 5">
    <path d="M685.39,191.34c-.7-1.72.54-3.43,1.25-4.94.77-1.63,1.14-3.38,1.25-5.17s-.02-3.68-.16-5.52c-.16-2.07-.31-4.14-.47-6.21s-.32-4.07-.46-6.11c-.11-1.56-.18-3.14-.02-4.7s.51-2.99,1.32-4.25c.87-1.36,2.24-2.26,3.78-2.68,1.81-.5,3.73-.44,5.58-.25,1.75.18,3.66.52,4.8,1.99.39.51,1.1-.2.71-.71-1.01-1.3-2.61-1.85-4.17-2.11-1.69-.28-3.45-.4-5.15-.24s-3.37.62-4.73,1.67c-1.24.95-2.08,2.27-2.57,3.74-1.11,3.32-.58,7.01-.32,10.42.17,2.24.34,4.47.51,6.71s.38,4.25.41,6.38-.19,4.49-1.15,6.53c-.83,1.75-2.17,3.71-1.35,5.71.24.59,1.21.33.96-.27h0Z"/>
    <path d="M685.41,191.4c-1.16-11.27-2.33-22.56-2.42-33.89-.03-3.22.03-6.44.2-9.66.03-.64-.97-.64-1,0-.59,11.32.18,22.65,1.26,33.92.31,3.21.64,6.42.97,9.63.07.63,1.07.64,1,0h0Z"/>
    <path d="M687.85,119.86c1.78-12.83,3.75-25.65,6.46-38.32,2.7-12.63,6.14-25.14,10.89-37.16,2.65-6.72,5.73-13.27,9.28-19.55.32-.56-.55-1.07-.86-.5-6.33,11.21-11.11,23.23-14.82,35.54s-6.45,25.31-8.64,38.18c-1.22,7.16-2.27,14.36-3.27,21.55-.09.63.88.9.96.27h0Z"/>
    <path d="M683.15,132.1c-.26,2.26-.49,4.52-.71,6.79-.06.64.94.64,1,0,.22-2.26.45-4.53.71-6.79.03-.27-.25-.5-.5-.5-.3,0-.47.23-.5.5h0Z"/>
    <path d="M690.87,87.61c-1.95,8.29-3.62,16.65-5.01,25.05-.39,2.37-.76,4.75-1.11,7.13-.09.63.87.9.96.27,1.24-8.43,2.75-16.81,4.54-25.14.51-2.35,1.03-4.7,1.58-7.04.15-.63-.82-.89-.96-.27h0Z"/>
    <path d="M691.96,88.33c-.22-1.65.85-3.21,1.73-4.5.15-.22.04-.55-.18-.68-.25-.14-.53-.05-.68.18-1.06,1.58-2.1,3.3-1.83,5.27.04.27.38.41.62.35.29-.08.39-.35.35-.62h0Z"/>
    <path d="M686.61,148.87c.14-5.47.54-10.94,1.2-16.38.08-.64-.92-.63-1,0-.66,5.44-1.06,10.9-1.2,16.38-.02.64.98.64,1,0h0Z"/>
    <path d="M690.75,151.83c-.25-1.03.7-1.89,1.45-2.45.71-.52,1.46-.99,2.23-1.41,1.65-.91,3.42-1.59,5.26-2.04,3.63-.9,7.46-.88,11.08.1.62.17.89-.8.27-.96-4.05-1.1-8.37-1.04-12.39.11-1.99.57-3.91,1.41-5.67,2.5-1.51.93-3.69,2.34-3.17,4.42.15.62,1.12.36.96-.27h0Z"/>
    <path d="M695.16,147.33c.85-3.5,4.97-5.07,8-6.13,3.89-1.37,7.99-2.07,12.11-2.09.64,0,.64-1,0-1-4.44.03-8.86.81-13.02,2.36-3.21,1.19-7.16,2.93-8.06,6.6-.15.63.81.89.96.27h0Z"/>
    <path d="M697.53,143.4c1.63-1.11,3.28-2.19,4.89-3.33,1.46-1.04,2.84-2.17,3.94-3.6s1.95-3.07,2.71-4.73c.83-1.79,1.6-3.6,2.33-5.43.85-2.14,1.63-4.32,2.32-6.52.19-.62-.77-.88-.96-.27-1.45,4.65-3.22,9.33-5.49,13.64-1.07,2.03-2.41,3.77-4.22,5.2-1.91,1.51-4,2.8-6.01,4.17-.53.36-.03,1.23.5.86h0Z"/>
    <path d="M712.77,119.19c-2.31,3.14-5.99,4.7-9.28,6.55-3.74,2.11-7.16,4.78-11.13,6.48-.59.25-.08,1.11.5.86,4.09-1.74,7.6-4.52,11.47-6.67,3.38-1.87,6.95-3.53,9.3-6.72.38-.52-.49-1.02-.86-.5h0Z"/>
    <path d="M692.55,133.2c3.61-1.53,5.91-4.86,8.1-7.95,2.37-3.34,5-6.53,8.37-8.93,1.89-1.34,3.96-2.4,6.19-3.05.62-.18.35-1.14-.27-.96-3.93,1.14-7.35,3.5-10.21,6.38-1.44,1.44-2.74,3.02-3.94,4.66s-2.28,3.3-3.56,4.85c-1.43,1.73-3.09,3.26-5.18,4.14-.59.25-.08,1.11.5.86h0Z"/>
    <path d="M715.17,113.28c.64,0,.64-1,0-1s-.64,1,0,1h0Z"/>
    <path d="M678.91,143.12c-3.12-4.33-6.26-8.68-8.82-13.38-1.24-2.27-2.35-4.65-2.93-7.19-.11-.47-.4-1.26-.29-1.74.06-.27.13-.19.4-.16.21.02.4.04.6-.02,1.17-.39.26-1.88,0-2.59-1.02-2.82-1.47-5.81-1.38-8.8.02-.64-.98-.64-1,0-.09,2.65.25,5.32,1.01,7.87.19.62.4,1.24.64,1.85.02.06.34.71.34.72h.05c-.08,0-.16,0-.23-.01-.15-.01-.28-.04-.43-.03-1.13.07-1.04,1.27-.91,2.09.84,5.19,3.88,9.95,6.72,14.27,1.71,2.6,3.53,5.12,5.34,7.64.37.52,1.24.02.86-.5h0Z"/>
    <path d="M678.48,143.28c-1.93-.27-3.59-1.26-5.15-2.37s-3.04-2.22-4.51-3.39c-2.86-2.3-5.53-4.91-7.19-8.23-.22-.44-.96-.24-.93.25.12,1.87,1.4,3.32,2.51,4.73,1.21,1.54,2.48,3.03,3.8,4.47,2.62,2.86,5.45,5.52,8.47,7.96,1.7,1.37,3.45,2.67,5.25,3.9.53.36,1.03-.5.5-.86-6.07-4.15-11.55-9.15-16.22-14.83-.68-.83-1.36-1.67-2-2.54s-1.23-1.76-1.3-2.84l-.93.25c1.72,3.45,4.52,6.18,7.5,8.56,1.48,1.18,3,2.33,4.55,3.42,1.63,1.15,3.39,2.19,5.39,2.47.63.09.9-.88.27-.96h0Z"/>
    <path d="M678.99,148c-3.72-.2-7.11-2.23-10.61-3.32s-7.42-1.79-11.23-1.99v1c1.79-.05,3.44.79,5.04,1.48s3.26,1.4,4.87,2.13c3.19,1.44,6.34,2.99,9.36,4.77l.39-.91c-1.54-.43-3.11-.49-4.67-.21-.47.09-.48.88,0,.96,3.53.59,6.88,1.9,9.87,3.86.54.35,1.04-.51.5-.86-3.06-2-6.5-3.35-10.11-3.96v.96c1.39-.25,2.78-.17,4.14.21.55.15.87-.63.39-.91-3.16-1.86-6.45-3.46-9.8-4.96-1.65-.74-3.32-1.46-4.99-2.17s-3.22-1.44-5.01-1.39c-.65.02-.64.97,0,1,3.88.2,7.72.9,11.42,2.1,3.45,1.12,6.74,3.02,10.43,3.22.64.03.64-.97,0-1h0Z"/>
    <path d="M666.77,105.07c-1.02-8.21,3.01-15.8,5.02-23.53l-.91.12c3.32,6.38,7.47,12.31,12.32,17.63.43.48,1.14-.23.71-.71-4.79-5.26-8.88-11.12-12.16-17.43-.2-.38-.81-.29-.91.12-2.03,7.82-6.09,15.49-5.06,23.8.08.63,1.08.64,1,0h0Z"/>
    <path d="M681.36,95.01c-3.08-6.13-5.63-12.51-7.62-19.07-.19-.61-1.15-.35-.96.27,2.01,6.64,4.6,13.11,7.72,19.31.29.58,1.15.07.86-.5h0Z"/>
    <path d="M673.54,76.18c-.24-4.07,1.49-7.86,2.99-11.54,1.6-3.91,3.04-7.88,4.49-11.84,2.75-7.49,5.6-14.99,9.73-21.85,2.19-3.63,4.73-7.04,7.71-10.05.45-.46-.25-1.16-.71-.71-5.38,5.42-9.29,12.09-12.41,19.02-3.5,7.77-6.07,15.92-9.24,23.83-1.68,4.21-3.85,8.49-3.57,13.15.04.64,1.04.64,1,0h0Z"/>
    <path d="M697.66,20.72c.02,3.52,1.11,6.97,3.16,9.83.27.38.95.28.93-.25-.12-4.18-.13-8.36-.03-12.54l-.85.35c1.18.97,2.37,1.93,3.55,2.9.38.31.96.03.84-.49-.51-2.07-.69-4.18-.55-6.31.04-.64-.96-.64-1,0-.14,2.21.06,4.42.59,6.58l.84-.49c-1.18-.97-2.37-1.93-3.55-2.9-.33-.27-.84-.11-.85.35-.1,4.18-.09,8.36.03,12.54l.93-.25c-1.95-2.73-3.01-5.97-3.02-9.33,0-.64-1-.64-1,0h0Z"/>
    <path d="M705.85,11.97c1.69-4.6,7.49-5.52,11.04-8.11l-.73-.56c-.42,1.64-.82,3.29-.82,5,0,.57.82.67.98.13,1.13-3.67,4.34-6.52,8.1-7.28.47-.09.96-.18,1.44-.17.69.02,1.03.41,1.46.89.77.85,1.53,1.72,2.19,2.66,1.39,1.99,1.95,4.19,2.15,6.58.23,2.82.26,5.66.15,8.48l.37-.48c-4.25.89-8.3,2.61-11.88,5.06-.38.26-.28.95.25.93,3.13-.12,6.27-.25,9.4-.37.64-.03.64-1.03,0-1-3.13.12-6.27.25-9.4.37l.25.93c3.52-2.41,7.47-4.09,11.65-4.96.22-.05.36-.27.37-.48.1-2.82.08-5.66-.15-8.48-.21-2.6-.82-5.02-2.35-7.17-.73-1.04-1.57-2-2.43-2.93s-1.67-1.11-2.89-.95c-2.07.26-4.02,1.11-5.66,2.39-1.87,1.46-3.27,3.45-3.98,5.72l.98.13c0-1.62.39-3.17.79-4.73.1-.39-.36-.83-.73-.56-3.86,2.81-9.67,3.72-11.5,8.71-.22.61.74.87.96.27h0Z"/>
    <path d="M729.45,24.85c.16,2.3.33,4.67-.13,6.95-.44,2.16-1.51,4.04-2.92,5.72s-2.95,3.12-4.5,4.59c-1.69,1.6-3.5,3.05-5.48,4.28-.33.2-.33.84.12.91,3.5.54,6.7-1.09,9.68-2.72.56-.31.06-1.17-.5-.86-2.7,1.48-5.72,3.11-8.91,2.62l.12.91c2.05-1.27,3.93-2.77,5.68-4.43,1.65-1.56,3.33-3.14,4.76-4.91s2.47-3.65,2.91-5.84c.48-2.38.33-4.81.17-7.22-.04-.64-1.04-.64-1,0h0Z"/>
    <path d="M725.25,44.57c-.29,2.97,1.2,5.71,1.18,8.65-.01,1.63-.57,3.2-1.09,4.73-.45,1.31-.91,2.61-1.39,3.91-1.95,5.22-4.25,10.36-7.38,14.99-1.74,2.57-3.74,4.96-6.02,7.07-.3.28-.08.9.35.85,3.59-.36,7.03-1.55,10.06-3.52l-.68-.68c-.98,2.02-1.96,4.05-2.94,6.07-.18.37.12.87.56.73,1.08-.32,2.16-.63,3.24-.95.62-.18.35-1.15-.27-.96-1.08.32-2.16.63-3.24.95l.56.73c.98-2.02,1.96-4.05,2.94-6.07.2-.42-.23-.98-.68-.68-2.87,1.86-6.14,3.03-9.55,3.38l.35.85c4.17-3.86,7.36-8.62,9.88-13.68,1.25-2.52,2.36-5.11,3.36-7.74.52-1.36,1.02-2.72,1.49-4.1s1.04-2.86,1.29-4.35c.28-1.66.04-3.28-.33-4.91-.4-1.74-.89-3.46-.71-5.26.06-.64-.94-.64-1,0h0Z"/>
    <path d="M714.68,113.56c3.18-1.01,4.48-4.42,5.32-7.35,1.2-4.17,2.02-8.46,2.44-12.79.24-2.46.35-4.93.33-7.39,0-.64-1-.64-1,0,.03,4.1-.29,8.19-.98,12.23-.34,2-.77,3.99-1.28,5.95-.43,1.66-.87,3.35-1.62,4.9s-1.81,2.95-3.48,3.48c-.61.19-.35,1.16.27.96h0Z"/>
    <path d="M693.75,29.78c-.01,2.62.7,5.27,2.2,7.44,1.73,2.51,4.33,3.75,7,1.7,4.25-3.28,4.81-9.97,4.46-14.9l-3.73,1.01c1.07,1.41,2.78,1.96,4.42,1.1s2.16-2.91,2.29-4.66c.14-1.89-.28-3.85.11-5.71.36-1.72,1.69-2.94,2.89-4.12l-3.41-1.41c-.26,2.19-.51,4.37-.77,6.56-.18,1.52,1.82,2.47,3.01,1.73l13.88-8.73c1.77-1.11.92-3.55-1.01-3.73-2.86-.26-5.39,1.24-7.62,2.86-2.4,1.74-4.67,3.64-6.79,5.7l3.14,2.42c2.69-3.68,6.49-6.54,10.77-8.12l-2.26-.92c.77,1.69,1.09,3.66.84,5.51-.04.25-.08.5-.15.74l.11-.34c-.57.12-1.14.17-1.72.21-.99.06-1.97.07-2.96.17-4.12.42-7.15,2.65-10.23,5.24l2.83,2.83c1.63-1.83,3.42-3.54,5.41-4.97,1.89-1.36,4.08-3.02,6.52-2.77l-1.01-3.73c-5.9,2.62-12.17,5.7-15.12,11.81-.93,1.92,1.54,4.24,3.14,2.42.99-1.13,1.99-2.32,3.19-3.24s2.6-1.46,4.04-1.9c3.16-.95,6.62-1.49,9.62-2.86,1.22-.56,2.28-1.5,2.71-2.81.54-1.68-.33-3.3-1.01-4.79-.61-1.34-1.11-3.25-2.18-4.28-1.44-1.39-3.39-.34-4.98.2-2.42.83-1.38,4.69,1.06,3.86.65-.22,1.7-.82,2.38-.75l-1.41-.59c.34.29.51,1.01.69,1.42.26.58.53,1.15.79,1.73.25.54.48,1.09.73,1.63.05.11.05.58.16.3-.02.06-.06.11-.1.16-.48.6-1.9.77-2.56.96-1.35.38-2.7.76-4.05,1.14-2.29.65-4.69,1.2-6.78,2.39s-3.61,2.88-5.13,4.61l3.14,2.42c2.65-5.49,8.41-8.03,13.69-10.38.8-.35,1.13-1.48.92-2.26-.25-.91-1.04-1.38-1.93-1.47-3.02-.32-5.8,1.39-8.18,3.06s-4.62,3.65-6.57,5.85c-1.72,1.94.87,4.48,2.83,2.83,1.58-1.34,3.24-2.77,5.2-3.54,2.31-.9,4.86-.55,7.27-.94,1.16-.19,2.32-.59,2.95-1.65.57-.95.66-2.17.73-3.25.16-2.44-.42-4.8-1.43-7-.34-.74-1.5-1.2-2.26-.92-5.33,1.97-9.81,5.37-13.16,9.96-1.37,1.88,1.56,3.96,3.14,2.42,1.77-1.72,3.63-3.34,5.62-4.81,1.76-1.3,3.67-2.79,5.97-2.58l-1.01-3.73c-4.63,2.91-9.25,5.82-13.88,8.73l3.01,1.73c.26-2.19.51-4.37.77-6.56.21-1.81-2.28-2.52-3.41-1.41-2.05,2-3.75,4.08-4.1,7.01-.17,1.43-.05,2.86-.04,4.3,0,.67.03,1.4-.15,2.06,0,.03-.2.55-.2.54-.25-.29,1.2.31.5-.21l.72.72-.16-.21c-.55-.72-1.33-1.17-2.26-.92-.8.22-1.53,1.06-1.47,1.93.24,3.4.15,7.6-1.81,10.55-.27.41-.99,1.46-1.54,1.49.31-.02-.26-.36-.35-.46-.25-.28-.45-.6-.64-.92-.91-1.5-1.32-3.16-1.31-4.91.01-2.57-3.99-2.58-4,0h0Z"/>
    <path d="M692.94,29.47c-4.77,8.14-8.79,16.7-12.02,25.56-1.62,4.45-3.24,9.03-4.15,13.68s-.67,8.9,1.02,13.2,4.39,8.41,5.6,13.01c.51,1.93,3.32,1.88,3.86,0,2.67-9.44,5.3-18.9,8.06-28.31,1.38-4.68,2.79-9.35,4.24-14.01s2.88-8.86,5.07-12.98c.77-1.45-.22-2.84-1.73-3.01-1.6-.19-3.19.24-4.78.09-.68-.06-1.73-.36-1.68-1.17l-3.41,1.41c.94.86,1.88,1.72,2.82,2.58.44.41.9.8,1.33,1.22.11.1.67.89.74.91-.04,0,.49-.31.48-.43,0-.05-.26-.1-.34-.19-.33-.34-.8-.62-1.15-.97-.91-.91-1.77-1.86-2.59-2.85-1.46-1.75-4.34.52-3.14,2.42s1.67,3.7,2.55,5.62c.94,2.04,3.05,3.04,5.13,2,1.64-.82,1.04-3.14-.48-3.66-2.33-.78-4.24-2.22-5.78-4.12-.62-.77-1.92-.72-2.63-.16-.84.67-.92,1.63-.52,2.58.79,1.86,1.61,3.72,2.81,5.35,1.03,1.4,3.05,3.84,5,3.61,1.12-.13,1.94-1.06,1.94-2.19,0-1.2-.82-1.98-1.75-2.57-2.09-1.32-4.43-2.32-6.75-3.18-1.56-.58-2.7,1.11-2.46,2.46.72,4.05,3.79,7.32,7.68,8.54,1.91.6,3.37-1.98,1.95-3.34-2.57-2.46-5.77-4.14-9.28-4.75-1.79-.31-3,1.3-2.26,2.94,1.5,3.32,4.6,8.13,8.78,7.94,1.97-.09,2.73-2.66,1.01-3.73-2.55-1.57-5.36-2.68-8.3-3.26-1-.2-2.24.27-2.46,1.4-.47,2.41,1.04,3.94,2.74,5.42s3.43,2.72,5.32,3.83c1,.59,2.74.11,2.94-1.2.3-1.94.51-4.06-.67-5.77s-3.28-2.2-5.26-2.42c-2.29-.25-4.01.81-5,2.86-1.09,2.27-2.02,4.64-3.03,6.95-.95,2.18-2,4.36-2.7,6.64s-.86,4.61-.65,6.95c.43,4.79,1.61,9.58,2.89,14.2.48,1.72,2.73,1.89,3.66.48,2.97-4.52,2.52-10.28,2.52-15.45,0-2.91,0-5.83.01-8.74,0-2.47-.5-5.65.74-7.9l-3.66-1.54c-1.95,8.14-3.89,16.29-5.09,24.57-.32,2.18,2.33,3.54,3.66,1.54,5.87-8.82,5.22-19.75,7.91-29.62l-3.93-.53c.42,9.64-.21,19.4-3.84,28.44l3.86,1.06c1.77-7.49,3.66-14.95,5.67-22.38.67-2.49-3.18-3.55-3.86-1.06-2.01,7.43-3.9,14.89-5.67,22.38-.6,2.56,2.92,3.41,3.86,1.06,3.74-9.34,4.42-19.55,3.98-29.5-.1-2.21-3.32-2.77-3.93-.53-2.59,9.48-1.88,20.2-7.51,28.66l3.66,1.54c1.2-8.29,3.14-16.44,5.09-24.57.52-2.15-2.53-3.58-3.66-1.54-1.33,2.4-1.28,5.07-1.28,7.74,0,2.99,0,5.99-.01,8.98,0,2.74.06,5.49-.06,8.23-.11,2.52-.52,4.99-1.92,7.14l3.66.48c-.97-3.51-1.79-7.07-2.41-10.66-.31-1.81-.52-3.65-.4-5.48s.7-3.44,1.35-5.06c1.4-3.45,2.92-6.89,4.46-10.28.21-.46.35-.97.83-1.11.52-.15,1.55.16,2.05.32,1.23.4.98,1.8.82,2.86l2.94-1.2c-1.2-.71-2.38-1.47-3.48-2.34-.53-.42-1.04-.85-1.54-1.31-.2-.18-1.2-1.1-1.21-1.08l-2.46,1.4c2.63.52,5.06,1.45,7.34,2.86l1.01-3.73c-1.28.06-2.24-1.21-2.99-2.11-.97-1.16-1.71-2.49-2.33-3.86l-2.26,2.94c2.86.49,5.42,1.71,7.52,3.72l1.95-3.34c-2.64-.83-4.41-3.06-4.89-5.75l-2.46,2.46c1.07.4,2.12.83,3.15,1.34.49.24.97.49,1.44.75.27.15.54.3.81.45.44.36.52.32.24-.12v-1.06l-.04.16,1.4-1.4-.16.06,1.54.2c-2.72-1.5-3.95-4.56-5.1-7.28l-3.14,2.42c1.96,2.44,4.59,4.16,7.54,5.15l-.48-3.66.64.03-.16-.26c-.01-.23-.19-.56-.27-.79-.21-.63-.45-1.25-.71-1.86-.49-1.15-1.06-2.25-1.72-3.3l-3.14,2.42c1.27,1.53,2.67,3.29,4.38,4.34s4.09,1.25,5.38-.58c1.19-1.68.66-3.75-.6-5.22-1.39-1.63-3.21-3.02-4.79-4.46-1.31-1.2-3.32-.34-3.41,1.41-.12,2.15,1.41,3.86,3.3,4.65,2.32.97,4.75.15,7.16.43l-1.73-3.01c-2.24,4.22-3.83,8.73-5.26,13.28s-2.91,9.45-4.31,14.2c-2.82,9.57-5.49,19.18-8.2,28.78h3.86c-1.03-3.91-3.05-7.44-4.76-11.08s-2.71-7.64-2.07-11.85c.69-4.54,2.29-9,3.81-13.31s3.17-8.41,5.05-12.49c2.14-4.66,4.52-9.2,7.11-13.63,1.3-2.23-2.15-4.24-3.45-2.02h0Z"/>
    <path d="M704.86,38.31c1.79-4.26,3.48-8.59,5.42-12.78,1.53-3.3,3.92-6.21,7.75-6.72,1.07-.14,2-.82,2-2,0-.97-.92-2.14-2-2-4.82.64-8.55,3.44-10.75,7.76-1.15,2.26-2.05,4.65-3.03,6.98l-3.25,7.7c-.42,1,.45,2.2,1.4,2.46,1.16.32,2.04-.4,2.46-1.4h0Z"/>
    <path d="M715.05,28.11c-4.82,3.8-7.6,9.98-7.39,16.09.03.92.6,1.65,1.47,1.93,2.28.75,4.37-1.26,6.04-2.54s3.4-2.67,4.97-4.16c3.03-2.87,5.69-6.24,7.36-10.08.29-.68.39-1.34,0-2.02-.34-.57-1.04-1.04-1.73-.99-1.67.12-3.33.31-4.98.57-1.49.23-3.06.44-4.5.94-3.16,1.09-4.64,3.84-6.12,6.63-.77,1.45-1.55,2.93-2.13,4.47-.54,1.45-.87,3.45.34,4.67.64.64,1.59.84,2.44.58s1.45-1.09,2.03-1.76c.96-1.11,1.92-2.24,2.9-3.33,1.87-2.08,3.95-4.2,6.67-5.1,2.43-.8,1.44-4.54-1.06-3.86-3.51.96-6.44,3.06-8.62,5.94l3.66.48c-.3-1.09.13-2.25,1.23-2.86.56-.31,1.07-1.06.99-1.73-.18-1.52-.26-3.04-.23-4.57.04-1.87-2.15-2.46-3.41-1.41-2.07,1.71-2.67,4.71-3.3,7.18-.74,2.9-1.29,5.84-1.84,8.78-.2,1.06.29,2.16,1.4,2.46.97.27,2.26-.33,2.46-1.4.51-2.73,1.02-5.45,1.68-8.15.31-1.27.64-2.54,1.05-3.78.3-.9.65-1.66,1.38-2.27l-3.41-1.41c-.03,1.53.05,3.05.23,4.57l.99-1.73c-2.58,1.42-3.86,4.55-3.07,7.37.5,1.81,2.66,1.78,3.66.48,1.54-2.03,3.8-3.44,6.23-4.11l-1.06-3.86c-2.62.86-4.83,2.46-6.78,4.38-.89.88-1.72,1.81-2.55,2.76-.47.53-.93,1.07-1.39,1.61-.28.32-.56.64-.83.96l-.42.48c-.33.31-.27.33.17.06h1.06l.17.08.72.72c-.29-.38-.1.57.03.16,0-.01.03-.33.04-.35.06-.36.2-.73.34-1.07.36-.88.82-1.73,1.25-2.57.78-1.53,1.54-3.28,2.67-4.58s2.73-1.43,4.27-1.72c1.87-.35,3.76-.58,5.66-.72l-1.73-3.01c-1.44,3.32-3.59,6.18-6.15,8.71-1.29,1.27-2.66,2.45-4.08,3.58-.68.54-1.38,1.06-2.08,1.57-.36.26-.72.53-1.09.78-.17.11-.42.2-.56.34-.01.01.13-.03.11-.04l1.47,1.93c-.18-5.14,2.14-10.05,6.22-13.26.85-.67.7-2.13,0-2.83-.84-.84-1.98-.67-2.83,0h0Z"/>
    <path d="M704.48,50.16l-5.66,19.63c-1.83,6.36-3.81,12.71-4.52,19.32-.13,1.2,1.4,2.39,2.53,1.93,15.64-6.39,19.83-23.78,27.65-37.03,1.22-2.07-1.46-3.79-3.14-2.42s-3.49,2.66-5.34,3.86l2.42.31c-.39-.46-.29-1.79-.4-2.32-.22-1.08-.79-2.1-1.72-2.72-1.02-.67-2.32-.82-3.5-1.04-1.53-.29-3.08-.53-4.63-.74-1.39-.19-2.37.51-2.53,1.93-1.51,13.23-4.88,26.16-8.22,39.02l3.93.53c-.2-3.74-.45-7.76,1.6-11.08l-3.73-1.01.57,4.37c.13.98.82,2.12,2,2,2.98-.31,4.42-2.73,5.8-5.11,1.51-2.61,2.78-5.36,3.85-8.18,2.13-5.63,3.26-11.62,3.46-17.63.06-2-2.76-2.7-3.73-1.01-4.3,7.53-4.25,16.38-6.83,24.49l3.93.53c.12-4.32.44-8.63.97-12.92.26-2.09.57-4.17.94-6.24.22-1.24.37-2.84,1.65-3.4h-2.02c.64.47.64,2.03.71,2.71.16,1.59.22,3.18.21,4.77-.03,3.18-.44,6.31-1.17,9.41-.52,2.17,2.48,3.54,3.66,1.54,1.86-3.17,3.32-6.59,4.27-10.15.39-1.48,1.19-3.56.49-5.03s-2.44-1.52-3.04-2.98l-.92,2.26c2.27-1.44,4.67-2.55,7.24-3.33l-1.06-3.86c-2.14.78-4.37,1.38-6.64,1.65-1.22.15-2.46.22-3.69.2-.66-.01-1.52.05-1.96-.53-1.08-1.41.47-3.59,1.23-4.73,1.2-1.8,2.62-3.42,4.19-4.9l-3.41-1.41c-.24,4.77-.82,9.5-1.75,14.19-.42,2.1,2.56,3.68,3.66,1.54,2.24-4.37,2.22-9.75,5.26-13.71l-3.45-2.02c-2.84,4.27-5.6,8.58-8.29,12.95l3.66,1.54c1.65-5.96,3.54-12.72,9.13-16.19l-2.94-2.26c-1.34,4.07-2.88,8.07-4.65,11.98l3.66.48c-.71-4.06,3.42-7.15,6.19-9.32,3.12-2.45,6.17-5.12,7.26-9.09.26-.95-.32-2.3-1.4-2.46-1.38-.21-2.65-.1-4.01.15-.87.16-2.07.59-2.94.23-.77-.32-1.4-1.74-1.52-2.52-.08-.57.18-.74.44-1.27.32-.66.44-1.4.28-2.12-.55-2.37-3.47-3.01-5.47-2.23-2.54,1-4.13,3.25-5.53,5.47l3.45,2.02c1.87-3.16,4.7-5.73,8.11-7.14l-2.46-2.46-.65,4.33c-.33,2.19,2.32,3.52,3.66,1.54,1.67-2.47,3.81-4.57,6.3-6.2l-2.42-3.14c-6.92,5.56-12.68,12.52-16.86,20.35l3.73,1.01c.16-1.63.1-3.23-.16-4.85-.05-.32-.24-.81-.21-1.12l-.15.13c.15-.14.31-.27.47-.4.7-.59,1.4-1.16,2.1-1.75l-3.14-2.42c-5.25,11.81-9.61,23.99-12.99,36.46l3.86,1.06c1.22-4.75,2.78-9.42,4.74-13.92.95-2.19,1.96-4.38,3.13-6.47.85-1.52,1.84-3.07,3.66-3.4l-2.46-2.46c-4.46,13.93-8.92,27.86-13.39,41.79l3.93.53c.85-6.48,1.7-12.96,2.54-19.43.8-6.09,1.42-12.3,3.73-18.05l-3.86-1.06c-3.7,15.62-6.34,31.48-7.94,47.45h4c-.24-9.38-.5-18.85,1.06-28.14.18-1.06-.28-2.15-1.4-2.46-1.01-.28-2.22.34-2.46,1.4-1.15,5.07-2.3,10.14-3.44,15.21-.51,2.26-.81,4.56-2.24,6.45-1.24,1.65-2.57,3.08-3.23,5.09-.28.83.18,1.83.92,2.26.83.49,1.71.24,2.42-.31.95-.74,1.9-1.48,2.86-2.22.55-.43,1.84-1.81,2.49-1.73l-1.01-.27v-.08c-.1-.34-.19-.67-.29-1.01v.32c.09,2.57,4.04,2.58,4.01,0-.06-6.28,1.8-12.33,5.34-17.52,1.45-2.13-2.01-4.14-3.45-2.02-3.91,5.74-5.96,12.6-5.89,19.54h4c-.08-2.68-2.9-3.64-5.02-2.37s-3.96,3.04-5.87,4.53l3.34,1.95c.6-1.83,2.22-3.16,3.25-4.74,1.33-2.03,1.69-4.48,2.21-6.8,1.15-5.07,2.3-10.14,3.44-15.21l-3.86-1.06c-1.62,9.67-1.45,19.44-1.2,29.2.07,2.62,3.75,2.52,4,0,1.56-15.62,4.18-31.11,7.8-46.39.61-2.56-2.92-3.4-3.86-1.06-2.38,5.93-2.99,12.35-3.81,18.62-.87,6.64-1.74,13.28-2.61,19.93-.3,2.32,3.27,2.58,3.93.53,4.46-13.93,8.92-27.86,13.39-41.79.5-1.57-1.05-2.71-2.46-2.46-4.88.86-7.04,6.92-8.81,10.86-2.27,5.08-4.13,10.33-5.51,15.72-.64,2.49,3.18,3.55,3.86,1.06,3.29-12.13,7.48-24.02,12.58-35.51.92-2.08-1.34-3.92-3.14-2.42-1.55,1.29-3.68,2.48-3.62,4.75.03.96.37,1.91.45,2.88.09,1.06.06,2.12-.05,3.18-.2,2,2.83,2.68,3.73,1.01,4.04-7.56,9.55-14.17,16.23-19.54,1.77-1.42-.53-4.37-2.42-3.14-3.09,2.01-5.68,4.57-7.74,7.63l3.66,1.54.65-4.33c.2-1.3-.88-3.11-2.46-2.46-4.41,1.82-8.06,4.86-10.5,8.98-1.32,2.23,2.08,4.19,3.45,2.02,1.02-1.6,2-3.1,3.79-3.84.05-.02.29.07.31.05-.1.14-.54-1.05-.42-1.08-.32.07-.71,1.3-.78,1.56-.34,1.26.04,2.48.52,3.65.85,2.04,2.11,3.89,4.45,4.3,1.14.2,2.24.06,3.37-.14.96-.17,2.01-.52,3-.37l-1.4-2.46c-1.13,4.09-5.23,6.37-8.26,8.96-3.43,2.93-6.01,6.9-5.19,11.58.29,1.63,2.96,2.01,3.66.48,1.91-4.22,3.61-8.53,5.05-12.93.54-1.66-1.49-3.16-2.94-2.26-6.56,4.07-9.01,11.52-10.97,18.58-.61,2.21,2.47,3.46,3.66,1.54,2.69-4.36,5.45-8.68,8.29-12.95.6-.9.18-2.21-.72-2.74-1.03-.6-2.08-.14-2.74.72-3.09,4.03-3,9.31-5.26,13.71l3.66,1.54c1.01-5.03,1.64-10.13,1.9-15.25.09-1.8-2.21-2.55-3.41-1.41-2.1,1.98-4.03,4.27-5.49,6.78-1.35,2.33-2.07,5.26-.56,7.71,1.61,2.62,4.76,2.63,7.49,2.46,3.18-.19,6.32-.84,9.32-1.94,2.38-.87,1.44-4.61-1.06-3.86-2.89.87-5.65,2.11-8.2,3.73-.67.43-1.26,1.44-.92,2.26.4.97.86,1.83,1.59,2.59.58.6,1.55.92,2.06,1.51l-.51-.88c.08-.32.07-.23-.04.27-.06.29-.12.59-.18.88-.13.58-.27,1.16-.43,1.74-.28,1.01-.59,2.01-.95,2.99-.76,2.09-1.74,4.08-2.86,5.99l3.66,1.54c1.07-4.51,1.52-9.18,1.22-13.81-.12-1.87-.18-3.96-1.06-5.66-.39-.76-.99-1.5-1.74-1.93-1.06-.6-2.19-.05-3.04.64-1.39,1.12-2.03,2.88-2.36,4.59-.44,2.2-.74,4.44-1.03,6.66-.62,4.69-.99,9.41-1.12,14.13-.07,2.32,3.26,2.63,3.93.53,2.46-7.73,2.34-16.36,6.43-23.53l-3.73-1.01c-.17,5.09-1.08,10.1-2.72,14.92-.79,2.33-1.75,4.58-2.88,6.77-.6,1.17-1.25,2.31-1.94,3.43-.29.48-.91,1.75-1.56,1.82l2,2-.57-4.37c-.24-1.87-2.6-2.84-3.73-1.01-2.43,3.94-2.39,8.63-2.15,13.09.12,2.18,3.34,2.8,3.93.53,3.44-13.22,6.82-26.48,8.37-40.08l-2.53,1.93c1.3.18,2.6.37,3.9.61.79.14,2.54.2,3.09.66-.22-.19.08.48.12.75.07.42.09.84.17,1.26.18.98.57,1.77,1.22,2.52.55.64,1.72.76,2.42.31,2.14-1.38,4.18-2.88,6.15-4.48l-3.14-2.42c-4.09,6.92-6.85,14.52-10.97,21.42-3.4,5.69-8,11.2-14.29,13.77l2.53,1.93c.69-6.39,2.74-12.58,4.51-18.73s3.68-12.77,5.52-19.16c.71-2.48-3.14-3.54-3.86-1.06h0Z"/>
    <path d="M688.07,91.94c.38-1.43,1.19-2.66,2.39-3.55.6-.45,1.29-.79,2.02-.99.25-.07.59-.09.83-.18.5.05.46-.08-.12-.38.1.28.19.57.25.86.41,1.88-.06,3.85-.45,5.68-.46,2.2-.88,4.4-1.23,6.62-1.39,8.78-1.92,17.66-2.21,26.53-.06,1.94,2.83,2.79,3.73,1.01.85-1.68,1.22-3.5,1.92-5.24.74-1.84,2.14-2.7,3.75-3.72,3.41-2.15,6.75-4.49,9.67-7.29,5.78-5.53,9.63-13.13,8.42-21.27-.16-1.05-1.52-1.69-2.46-1.4-1.33.41-3.04,1.09-4.4.46-1.09-.5-.87-1.62-1.19-2.61-1-3.14-4.86-3.56-7.58-2.57-5.86,2.14-8.15,9.29-8.49,14.95-.11,1.77,2.24,2.58,3.41,1.41,3.42-3.39,6.51-7.1,9.26-11.05l-3.45-2.02c-4.7,7.99-8.07,16.74-9.9,25.84-.42,2.09,2.6,3.7,3.66,1.54,3.03-6.17,3.8-12.95,4.48-19.71.17-1.66-1.78-2.29-3.01-1.73-3.74,1.71-3.42,6.3-3.59,9.74-.2,4.14-.61,8.27-1.24,12.36-.21,1.37.87,3.01,2.46,2.46,6.98-2.43,10.74-8.81,15.91-13.62,1.9-1.77-.91-4.52-2.83-2.83-3.61,3.19-7.69,5.76-12.09,7.71l2.94,2.26c1.51-8.09,3.69-16.04,6.51-23.77l-3.93-.53c-.53,8.13-1.73,16.18-3.57,24.12-.59,2.55,2.94,3.43,3.86,1.06,1.33-3.43,2.66-6.87,3.69-10.41.5-1.72.94-3.46,1.27-5.22.17-.94.31-1.89.43-2.84.07-.55-.03-1.44.3-1.88l-.72.72.2-.12-1.01.27h.24c-.34-.1-.67-.2-1.01-.29l.25.13-.72-.72c.43.6.21,2.32.22,3.07,0,1.16-.04,2.32-.15,3.48-.22,2.37-.74,4.7-1.46,6.97-.78,2.47,3.03,3.48,3.86,1.06.74-2.16,1.49-4.32,2.23-6.48.22-.63,1.2-4.63,2.01-4.41l-1.4-1.4c.29,1.68-.75,3.42-1.47,4.86s-1.55,2.99-2.38,4.46c-1.69,2.96-3.57,5.83-5.74,8.46-4.27,5.17-10.87,9.31-11.3,16.63-.14,2.31,3.3,2.64,3.93.53.49-1.63,1.82-2.76,3.06-3.84,1.46-1.27,2.87-2.5,4.01-4.07s1.96-3.37,3.17-4.89c1.28-1.6,3.02-2.36,4.88-3.09,2.03-.81,3.92-1.68,5.55-3.18,1.5-1.38,2.69-3.14,3.53-4.99.97-2.12,1.57-4.37,1.96-6.67.35-2.1.95-4.55.6-6.68-.43-2.62-2.73-3.54-5.1-2.71-1.88.66-4.71,1.53-5.87-.72l-1.73,3.01c2.32-.22,4.42-.77,6.55-1.7l-2.42-3.14c-1.71,2.05-3.43,4.1-5.14,6.14s1.17,4.81,2.83,2.83,3.43-4.1,5.14-6.14c1.51-1.8-.34-4.05-2.42-3.14-1.43.62-2.99,1.01-4.53,1.15s-2.46,1.58-1.73,3.01c.89,1.73,2.61,2.9,4.5,3.28,1.08.22,2.15.18,3.23.01.53-.08,1.05-.21,1.56-.36.29-.09.58-.19.87-.3.55-.2.6-.04.39-.57-.16-.42-.05.17-.05.33.02.41-.05.82-.09,1.22-.13,1.22-.28,2.43-.49,3.64-.35,2.05-.84,4.14-1.77,6.01-.82,1.66-1.93,3.22-3.46,4.3-1.67,1.18-3.7,1.71-5.54,2.56s-3.33,2.06-4.55,3.67c-1.16,1.52-2.01,3.23-3.1,4.79-2.36,3.37-6.44,4.99-7.7,9.18l3.93.53c.2-3.41,2.67-6.08,4.97-8.36,2.53-2.51,4.95-5.04,7.09-7.91s3.94-5.82,5.6-8.92,3.72-6.54,3.09-10.28c-.11-.67-.78-1.23-1.4-1.4-3.19-.87-5.05,1.8-5.98,4.43-1.08,3.08-2.12,6.17-3.18,9.25l3.86,1.06c1.12-3.57,1.73-7.31,1.75-11.05,0-1.61.2-3.86-.6-5.32-.94-1.72-3.34-1.76-4.38-.12-.87,1.36-.67,3.33-.93,4.88-.31,1.84-.74,3.67-1.26,5.46-1.05,3.69-2.44,7.28-3.82,10.86l3.86,1.06c1.93-8.28,3.16-16.7,3.72-25.18.16-2.38-3.2-2.53-3.93-.53-2.83,7.73-5,15.68-6.51,23.77-.34,1.81,1.31,2.98,2.94,2.26,4.72-2.09,9.03-4.92,12.9-8.33l-2.83-2.83c-4.53,4.21-8.03,10.46-14.15,12.59l2.46,2.46c.56-3.64.99-7.31,1.24-10.99.12-1.76.18-3.52.25-5.28.05-1.34.14-2.83,1.5-3.45l-3.01-1.73c-.6,6-1.24,12.2-3.93,17.69l3.66,1.54c1.77-8.78,4.95-17.16,9.49-24.88,1.32-2.25-2-4.1-3.45-2.02-2.56,3.68-5.45,7.09-8.64,10.24l3.41,1.41c.16-2.62.83-5.26,2.09-7.57,1.04-1.91,2.81-3.96,5.2-3.86.22,0,.39.03.61.07s.49.31.32.04c.25.39.21,1.09.31,1.54.29,1.27,1.05,2.33,2.11,3.08,2.44,1.73,5.44,1.14,8.09.32l-2.46-1.4c1.11,7.42-3.6,14.19-8.95,18.79-2.84,2.45-6.06,4.25-9.1,6.41-1.53,1.09-2.7,2.39-3.45,4.12s-1.04,3.49-1.86,5.12l3.73,1.01c.26-8.27.7-16.57,1.95-24.75.3-1.99.65-3.97,1.05-5.94s.9-3.97,1.01-6c.09-1.78-.08-4.19-1.34-5.57s-3.06-1.18-4.64-.77c-3.56.91-6.43,3.84-7.37,7.37-.66,2.49,3.19,3.55,3.86,1.06h0Z"/>
    <path d="M688.71,119.97c.28-.71.57-1.4.89-2.09l-1.86-.5c.12,1.97.23,3.95.35,5.92l1.96-.27c-.62-3.37-.39-6.76.61-10.03h-1.93c.38,1.78.48,3.54.33,5.35h2l-.3-9.05c-.04-1.07-1.8-1.43-1.96-.27l-.4,2.89,1.96.27c-.31-3.45.24-6.86,1.7-10.01l-1.83-.24c.44,2.59.11,5.16-.86,7.59h1.93c-.78-3.61.38-7.27.99-10.82.67-3.89,1.31-7.79,1.97-11.68.21-1.26-1.71-1.8-1.93-.53-.71,4.17-1.34,8.36-2.12,12.52-.68,3.65-1.64,7.32-.84,11.04.23,1.06,1.6.83,1.93,0,1.11-2.78,1.37-5.71.86-8.65-.14-.82-1.48-1-1.83-.24-1.61,3.47-2.31,7.2-1.97,11.02.09,1.03,1.8,1.47,1.96.27l.4-2.89-1.96-.27.3,9.05c.04,1.3,1.89,1.27,2,0,.17-1.98.02-3.94-.4-5.88-.22-1.01-1.65-.9-1.93,0-1.11,3.62-1.29,7.37-.61,11.1.2,1.1,2.03.86,1.96-.27-.12-1.97-.23-3.95-.35-5.92-.05-.9-1.42-1.48-1.86-.5-.39.85-.75,1.7-1.09,2.57-.47,1.2,1.46,1.72,1.93.53h0Z"/>
    <path d="M688.26,124.68c.71,2.58-.44,5.17-1.54,7.46-.51,1.07.68,1.9,1.57,1.21,2.33-1.81,3.64-4.61,3.83-7.52.07-1.03.02-2.16-.44-3.1-.55-1.14-1.72-1.53-2.9-1.2s-.71,2.27.53,1.93c.07-.02.14-.04.21-.05-.09,0-.09,0-.02,0,.07,0,.35-.07.12-.02l.08.02c.11.03.1.03-.03-.02.05,0,.25.18.04,0,.06.05.11.1.16.16-.15-.18,0,0,.02.05.03.05.05.1.07.14-.04-.1-.05-.11-.02-.04.03.08.06.17.08.25.13.47.11.5.13,1.01.01.41,0,.83-.05,1.24,0,.09-.02.17-.03.26-.03.25.03-.16,0,.05-.03.19-.06.38-.11.57-.13.61-.32,1.21-.59,1.77-.58,1.23-1.42,2.26-2.49,3.09l1.57,1.21c1.34-2.8,2.61-5.87,1.74-9-.34-1.24-2.27-.71-1.93.53h0Z"/>
    <path d="M670.78,88.29c.02,2.64,1.53,5.19,3.05,7.26s3.36,3.87,5.46,5.35c1.02.72,2.1,1.35,3.22,1.88,1,.47,2.36,1.26,3.5.94,1.32-.37,1.65-1.98,1.55-3.17-.12-1.43-.58-2.7-.17-4.13.88-3.08,3.6-5.27,4.75-8.25.35-.92-1.04-1.72-1.67-.97-2.97,3.55-4.93,7.81-5.59,12.4-.16,1.11,1.14,1.74,1.83.77,1.58-2.22,2.5-4.74,2.84-7.44.13-.99-1.45-1.36-1.86-.5-1.44,2.95-2.82,5.94-3.03,9.27-.06.94,1.1,1.21,1.71.71,2.82-2.33,2.04-6.22,3.12-9.33l-1.96-.27c-.2,1.95-.68,3.84-1.38,5.66l1.93.53,2.14-6.51c.36-1.1-1.25-1.72-1.83-.77-2.45,3.99-4.63,8.14-6.51,12.43-.44,1,.69,2.03,1.57,1.21,2.41-2.23,3.7-5.51,3.4-8.79h-2c.34,2.81.09,6.75-3.64,6.73-3.47-.02-5.19-3.46-5.68-6.44l-1.67.97c1.72,1.83,3.53,3.57,5.44,5.19,1.12.95,3.28,2.56,4.38.64.38-.66-.1-1.5-.86-1.5-2.24,0-4.24-1-5.65-2.73-.82-.99-2.23.43-1.41,1.41,1.74,2.11,4.34,3.3,7.07,3.31l-.86-1.5c.22-.09.2-.14-.06-.16-.13-.06-.26-.13-.38-.21-.28-.19-.54-.45-.8-.66-.64-.54-1.26-1.1-1.88-1.66-1.23-1.13-2.42-2.31-3.56-3.53-.74-.79-1.82.06-1.67.97.66,3.98,3.4,8.09,7.88,7.91,1.88-.08,3.64-1.01,4.59-2.67,1.05-1.82,1.02-4.04.78-6.06-.15-1.25-2.12-1.3-2,0,.25,2.8-.75,5.47-2.81,7.38l1.57,1.21c1.88-4.29,4.06-8.44,6.51-12.43l-1.83-.77-2.14,6.51c-.41,1.24,1.47,1.71,1.93.53.77-2,1.24-4.06,1.46-6.2.12-1.18-1.62-1.27-1.96-.27-.93,2.7-.19,6.45-2.6,8.44l1.71.71c.18-2.95,1.48-5.65,2.76-8.26l-1.86-.5c-.3,2.34-1.21,4.51-2.57,6.43l1.83.77c.61-4.24,2.33-8.23,5.08-11.52l-1.67-.97c-1.09,2.85-3.57,4.9-4.6,7.8-.53,1.48-.44,2.87-.17,4.39.07.42.38,1.88-.1,1.95-.54.07-1.49-.55-1.96-.78-2.49-1.2-4.72-2.87-6.57-4.91s-4.01-4.96-4.04-7.79c-.01-1.29-2.01-1.29-2,0h0Z"/>
    <path d="M670.79,88.15c-2.32,5.28-2.94,10.98-3.21,16.69-.14,2.85-.41,5.79.13,8.62.28,1.47.8,2.87,1.27,4.28.16.47,1.58,4.64.33,4.4-.82-.15-1.61.67-1.13,1.47,4.04,6.62,8.35,13.07,12.92,19.34.55.75,1.88.57,1.86-.5-.12-7.01,1.67-13.91,2.3-20.87.61-6.82.81-13.71,2.64-20.35l-1.96-.27c-.25,3.16-.74,6.28-1.48,9.36l1.96.27c.25-3.85,1.14-7.59,2.59-11.16.48-1.19-1.45-1.71-1.93-.53-1.52,3.74-2.4,7.66-2.66,11.69-.07,1.13,1.7,1.36,1.96.27.78-3.25,1.3-6.56,1.56-9.9.09-1.14-1.67-1.33-1.96-.27-1.84,6.66-2.08,13.57-2.67,20.42-.62,7.12-2.46,14.17-2.34,21.34l1.86-.5c-4.58-6.26-8.89-12.71-12.92-19.34l-1.13,1.47c1.07.2,2.09-.18,2.67-1.14.74-1.22.35-2.75,0-4.02-.44-1.58-1.06-3.11-1.5-4.69-.48-1.77-.58-3.53-.53-5.36.17-6.61.39-13.56,3.1-19.7.51-1.17-1.21-2.19-1.73-1.01h0Z"/>
    <path d="M687.16,128.29v4.01c.66-.09,1.32-.18,1.97-.27-.17-.4-.33-.8-.48-1.21-.1-.25-.22-.46-.46-.6-.21-.13-.53-.18-.77-.1-.47.15-.9.71-.7,1.23.16.41.32.81.48,1.21.19.47.56.79,1.1.72.49-.07.87-.48.87-.98v-4.01c0-.52-.47-1.02-1.01-1s-1,.44-1,1h0Z"/>
    <path d="M669.45,94.39c.62,2.49,1.33,9.15,5.46,7.08,1.03-.51,1.15-1.81.72-2.74-1.04-2.24-1.8-4.58-2.33-6.98-.23-1.05-1.46-1.67-2.46-1.4-1.14.31-1.57,1.39-1.4,2.46.41,2.58-.38,5.25-.67,7.81-.32,2.77-.28,5.58,0,8.35s.73,5.45,1.3,8.14c.28,1.34.59,2.67.91,4,.13.53.77,2.23.39,2.7l3.14.4c-.21-.34-.43-.68-.64-1.02l-3.14,2.42c3.3,3.59,6.72,7.34,7.93,12.2l3.66-1.54c-1.56-2.2-3.33-4.22-5.36-6.01-1.92-1.69-4.73,1.06-2.83,2.83,1.52,1.41,2.74,3.05,3.93,4.74s3.56,1.02,3.73-1.01c.33-4.02.51-8.04.54-12.07.02-2.87.07-8.37-3.97-8.63-1.97-.13-2.98,1.43-3.78,2.99s-1.4,3.12-1.69,4.78c-.5,2.86,0,6.24,2.8,7.72,1.05.55,2.7.14,2.94-1.2,1.7-9.4-1.96-18.36-2.45-27.67-.14-2.59-3.79-2.55-4,0-.66,8.07-.67,16.16-.02,24.23.18,2.2,3.24,2.78,3.93.53,1.25-4.08,1.1-8.34.98-12.55-.06-2.06-.11-4.14.07-6.2.09-.99.24-1.97.49-2.93.08-.32.21-.62.3-.93.11-.35.42-.37.09-.35l-2-2c-.57,6.05-1.09,12.34.67,18.25.38,1.28.8,2.99,1.81,3.92,1.21,1.12,3.13.71,3.91-.7,1.42-2.55,1.03-6.36.13-8.99-.68-2-4.18-1.84-3.93.53.43,4.13.41,8.28-.06,12.41-.26,2.27,3.37,2.67,3.93.53,2.1-8.01-1.19-15.84-1.5-23.84l-3.73,1.01c.67,1.34,2.15,1.91,3.59,1.77,1.59-.15,2.64-1.46,4.14-1.67l-2.26-2.94c-2.93,4.75-4.39,10.29-4.17,15.86.08,2.16,3.44,2.83,3.93.53.71-3.34,1.61-6.62,2.69-9.86l-3.93-.53c.29,4.44-.17,8.8-1.42,13.07l3.93.53c.03-2.73.03-5.45-.36-8.17-.36-2.52-1.18-4.87-2.25-7.17-2.01-4.29-4.93-8.16-6.32-12.73l-3.34,1.95c3.62,4.13,7.95,8.1,13.87,7.09,1.07-.18,1.66-1.49,1.4-2.46-.31-1.13-1.39-1.58-2.46-1.4-4.21.72-7.53-3.27-9.98-6.06-1.33-1.51-3.91.09-3.34,1.95,1.38,4.53,4.06,8.41,6.19,12.59,1.03,2.04,1.84,4.15,2.24,6.4.47,2.63.4,5.35.36,8.01-.03,2.28,3.3,2.69,3.93.53,1.34-4.58,1.88-9.37,1.56-14.14-.15-2.25-3.2-2.72-3.93-.53-1.08,3.24-1.98,6.52-2.69,9.86l3.93.53c-.19-4.91,1.05-9.66,3.63-13.84,1.02-1.65-.66-3.16-2.26-2.94-.97.13-1.76.62-2.58,1.12-.24.15-.51.27-.74.41-.59.35-.12-.26.11.21-.89-1.78-3.8-.93-3.73,1.01.29,7.53,3.61,15.26,1.64,22.77l3.93.53c.47-4.13.49-8.28.06-12.41l-3.93.53c.56,1.64,1.21,4.65.07,6.17l.72-.72-.28.12,1.54-.2-.29-.09.88.51c-.44-.48-.6-1.53-.78-2.15-.21-.7-.39-1.42-.53-2.13-.33-1.64-.47-3.3-.52-4.97-.1-3.37.21-6.74.52-10.09.1-1.03-1-2.07-2-2-5.01.33-4.99,7.65-5.01,11.3-.02,4.88.67,9.85-.78,14.6l3.93.53c-.65-8.07-.64-16.16.02-24.23h-4c.47,8.84,4.2,17.72,2.59,26.61l2.94-1.2c-1.12-.59-1.12-2.09-.97-3.21.13-.91.44-1.85.78-2.71.2-.52.45-1.02.71-1.51.14-.26.28-.51.43-.76.05-.12.04-.11-.05.03h-1.06c.84.12.75,2.24.76,2.89.02,1.5,0,3-.04,4.5-.07,3.14-.24,6.28-.5,9.41l3.73-1.01c-1.39-1.96-2.8-3.91-4.56-5.55l-2.83,2.83c1.77,1.56,3.37,3.28,4.73,5.2,1.27,1.79,4.23.76,3.66-1.54-1.38-5.53-5.19-9.87-8.96-13.97-1.53-1.67-4.36.5-3.14,2.42.21.34.43.68.64,1.02.63.99,2.29,1.45,3.14.4,1.88-2.3,1.03-4.9.42-7.53-.71-3.03-1.38-6.09-1.74-9.18s-.46-6.05-.12-9.07,1.06-5.99.56-9.11l-3.86,1.06c.61,2.75,1.55,5.39,2.74,7.94l.72-2.74-.23.11,1.01-.27-.23-.02,1.01.27c.16.09.12.24-.06-.44-.12-.48-.24-.97-.36-1.45l-.72-2.9c-.62-2.5-4.48-1.44-3.86,1.06h0Z"/>
    <path d="M711.27,52.71c1.94.36,3.91.57,5.88.53.94-.02,1.87-.1,2.8-.22.87-.11,2-.5,2.85-.38l-1.01-.27.24.17-.72-.72c-.11-.18-.06.34-.11.59-.07.37-.16.74-.27,1.1-.26.87-.62,1.67-1.05,2.47-.82,1.5-1.84,2.88-2.89,4.22-2.44,3.09-4.79,6.15-6.72,9.6-2.06,3.69-3.84,7.54-5.68,11.34-.78,1.61-1.71,3.32-1.59,5.17s1.42,3.5,3.34,3.84c.97.18,2,.04,2.93-.29.62-.21,1.71-1.01,2.39-.84.33.09.72.63.99.85.44.36.9.71,1.38,1.01.94.58,1.99,1,3.05,1.28,2.49.67,3.55-3.19,1.06-3.86-.96-.26-1.87-.64-2.66-1.26-.85-.67-1.53-1.48-2.59-1.83s-2.21-.18-3.23.2c-.42.16-2.08,1.13-2.57.83-.67-.42,1.44-4.06,1.71-4.62,1.04-2.15,2.07-4.3,3.14-6.43,2.06-4.07,4.42-7.83,7.26-11.39,2.58-3.23,5.31-6.67,5.96-10.88.18-1.21.23-2.58-.71-3.52-1.11-1.11-2.52-.73-3.88-.48-2.71.49-5.54.44-8.24-.06-2.52-.47-3.59,3.38-1.06,3.86h0Z"/>
    <path d="M695.83,36.01c2.89.47,5.79.89,8.68.2.82-.2,1.51-1.08,1.47-1.93s-.59-1.78-1.47-1.93c-1.2-.2-2.38-.17-3.59-.2-.13,0-.71.05-.8-.05.24.04.29.04.14.02-.08-.01-.16-.03-.23-.04-.1-.02-.21-.05-.31-.07-.11-.03-.31-.14-.42-.14.09,0,.38.18.13.05-.2-.11-.39-.23-.59-.35s.36.33.06.05c-.08-.07-.16-.14-.23-.21-.15-.14-.28-.3-.42-.46-.16-.18.28.41.04.05-.06-.09-.12-.17-.18-.26-.11-.18-.22-.37-.32-.56-.05-.1-.09-.19-.14-.29-.16-.33.11.3.02.06-.07-.2-.15-.41-.21-.61-.13-.43-.23-.87-.29-1.32s-.54-.99-.92-1.2c-.4-.21-.82-.3-1.28-.24-.99.13-1.72.96-1.73,1.96-.04,2.48,1.89,4.25,4.01,5.15s4.28,1.74,6.43,2.6c.97.39,2.24-.43,2.46-1.4.26-1.16-.35-2.04-1.4-2.46-1.79-.72-3.58-1.44-5.38-2.16-.1-.04-.19-.08-.29-.12-.27-.11.31.14.05.02-.19-.09-.38-.17-.56-.26s-.36-.19-.54-.3c-.09-.05-.17-.12-.26-.17-.23-.14.22.21.04.03-.13-.13-.26-.27-.4-.4-.18-.17.17.29.06.07-.04-.08-.1-.16-.15-.24-.03-.05-.16-.34-.05-.07s0-.03-.02-.09c-.02-.06-.07-.37-.03-.07.05.33.01-.1.01-.15l-3.93.53c.32,2.18,1.39,4.31,3.15,5.67,1.1.85,2.36,1.23,3.73,1.36.59.06,1.18.05,1.77.05.3,0,.59,0,.89.01.16,0,.32.02.48.03.44.03-.36-.07.1.01v-3.86c-.3.07-.61.13-.92.18-.25.04.34-.03-.06,0-.17.01-.34.03-.51.04-.59.03-1.19.03-1.78,0s-1.2-.09-1.79-.18c.29.04.13.02-.06-.01-.14-.02-.28-.04-.42-.06-.34-.05-.68-.11-1.01-.16-1.03-.17-2.2.27-2.46,1.4-.22.96.29,2.28,1.4,2.46h0Z"/>
    <path d="M720.47,10.63c.81-1.15,2.38-3.07,3.69-2.67.69.21,1.2.73,1.59,1.39.44.74.92,1.82.95,2.69.02.7-.81,1.5-1.22,2.04-.65.84-1.35,1.65-2.07,2.43-1.48,1.61-3.1,3.09-4.82,4.43-.85.67-.7,2.13,0,2.83.84.84,1.98.67,2.83,0,2.24-1.76,4.31-3.74,6.13-5.94.88-1.06,1.85-2.16,2.52-3.37.86-1.55.66-3.22.13-4.84-.91-2.81-2.86-5.37-5.99-5.7s-5.57,2.37-7.19,4.69c-.62.89-.16,2.22.72,2.74,1,.58,2.11.17,2.74-.72h0Z"/>
    <path d="M687.3,121.55c-.62,8.89-1.17,17.78-1.64,26.68-.09,1.74,2.25,2.63,3.41,1.41l3.45-3.58c1.05-1.09,2.44-2.23,1.87-3.91-.25-.74-.84-1.29-1.58-1.51-.29-.09-.64-.14-.94-.12-.99.09.13.35.08.38.04-.02.15-1.27.16-1.33.13-.83.13-1.57-.09-2.38l-.92,2.26c1.9-.82,3.8-1.64,5.7-2.47l-3.01-1.73c-.17,1.98-1.26,3.85-2.9,4.98l2.02,3.45c1.61-1.23,2.93-2.59,4.07-4.26s-1.08-3.68-2.74-2.74c-2.02,1.16-3.67,2.78-4.89,4.77-1.36,2.23,1.99,4.09,3.45,2.02,1.22-1.72,2.74-3.27,4.47-4.48s3.77-2.1,5-4.02c.88-1.38-.61-3.59-2.26-2.94-2.82,1.13-5.65,2.25-8.47,3.38l1.54,3.66c3.89-2.09,7.59-4.48,11.09-7.16l-2.94-2.26c-.46,1.98-2.07,3.29-3.6,4.5-1.95,1.53-4.01,2.93-6.11,4.25l2.42,3.14c3.52-2.83,7.16-5.51,10.9-8.05,2.12-1.44.12-4.9-2.02-3.45-4.02,2.73-7.92,5.63-11.71,8.67-1.78,1.43.52,4.33,2.42,3.14,2.5-1.57,4.92-3.27,7.22-5.12,1.97-1.58,3.74-3.49,4.33-6.02.35-1.51-1.45-3.4-2.94-2.26-3.5,2.68-7.2,5.08-11.09,7.16-1.95,1.05-.6,4.51,1.54,3.66,2.82-1.13,5.65-2.25,8.47-3.38l-2.26-2.94c-.52.8-1.4,1.23-2.2,1.71-.96.58-1.87,1.22-2.76,1.91-1.75,1.39-3.22,3.04-4.51,4.87l3.45,2.02c.87-1.42,2.01-2.51,3.45-3.34l-2.74-2.74c-.72,1.06-1.61,2.05-2.63,2.83-.86.65-1.31,1.72-.72,2.74.51.88,1.84,1.34,2.74.72,2.88-2,4.57-4.95,4.88-8.44.15-1.68-1.77-2.26-3.01-1.73-1.9.82-3.8,1.64-5.7,2.47-.8.34-1.13,1.48-.92,2.26.19.68-.16,1.46-.21,2.15-.06.77.08,1.55.42,2.24s.8,1.2,1.46,1.55c.33.17.66.25,1.03.3.25.03,1.17.26.6-.09l-.92-1.2.09.21v-1.06l-.08.3.51-.88c-1.45,1.78-3.22,3.37-4.81,5.03l3.41,1.41c.47-8.9,1.01-17.79,1.64-26.68.18-2.57-3.82-2.56-4,0h0Z"/>
    <path d="M695.17,140.15c4.24-.68,8.05-3.19,10.41-6.76.27-.41-.27-.97-.68-.68-1.73,1.21-3.36,2.55-4.87,4.02l.79.61,5.18-7.84c.23-.34-.08-.72-.43-.75l-1.97-.17.25.93c1.3-.7,2.6-1.4,3.9-2.1l-.73-.3c.41,1.73-.94,3.47-1.81,4.85-.92,1.47-1.94,2.87-3.15,4.11l.79.61c1.39-3.05,2.77-6.1,4.16-9.15l-.91-.39c-.33.96-.65,1.92-.98,2.89-.13.39.39.83.73.56.78-.6,1.49-1.25,2.13-1.99.42-.48-.25-1.17-.71-.71-.89.9-1.78,1.81-2.67,2.71l.84.49.51-1.44c.08-.24-.1-.57-.35-.62-1.01-.18-1.98-.19-2.99-.04l.49.84c1.15-1.18,2.55-2,4.14-2.43l-.62-.62c-.24,1.32-.72,2.54-1.45,3.67l.91.39c.64-1.61,1.44-3.14,2.37-4.59l-.93-.25c-.51,4.33-3.14,8.31-6.96,10.44-1.99,1.1-4.24,1.71-6.51,1.75-.55.01-1.09-.01-1.64-.06-.25-.02-.53-.03-.77-.1-.46-.13-.56-.44-.7-.86-.39-1.14-.79-2.35-.7-3.58.16-2.27,2.74-3.59,2.54-5.95-.05-.64-1.05-.64-1,0,.09,1.15-.68,2.04-1.31,2.92-.68.96-1.19,1.94-1.24,3.14-.06,1.34.36,2.7.81,3.95.17.48.38.93.85,1.18.5.26,1.17.27,1.72.32,4.96.41,9.93-1.8,12.95-5.76,1.64-2.15,2.64-4.7,2.96-7.38.06-.53-.69-.63-.93-.25-.98,1.53-1.8,3.14-2.47,4.83-.22.55.62.84.91.39.78-1.19,1.3-2.51,1.55-3.91.07-.37-.22-.72-.62-.62-1.75.48-3.32,1.4-4.58,2.69-.38.39.02.9.49.84.82-.12,1.65-.1,2.46.04l-.35-.62-.51,1.44c-.17.48.5.83.84.49.89-.9,1.78-1.81,2.67-2.71l-.71-.71c-.58.67-1.22,1.29-1.92,1.84l.73.56c.33-.96.65-1.92.98-2.89.18-.53-.68-.9-.91-.39-1.39,3.05-2.77,6.1-4.16,9.15-.22.49.36,1.04.79.61,1.38-1.41,2.51-3.02,3.54-4.69.97-1.57,2.13-3.31,1.67-5.24-.08-.32-.46-.45-.73-.3-1.3.7-2.6,1.4-3.9,2.1-.47.25-.21.89.25.93l1.97.17-.43-.75c-1.73,2.61-3.45,5.23-5.18,7.84-.32.48.39.99.79.61,1.45-1.41,3.01-2.7,4.67-3.86l-.68-.68c-2.23,3.38-5.83,5.66-9.81,6.3-.63.1-.36,1.07.27.96h0Z"/>
    <path d="M672.68,130.15c.48,2.84,2.69,4.85,4.59,6.82.97,1.01,1.93,2.06,2.58,3.31.61,1.17.63,2.94,2.04,3.46.32.12.61-.18.63-.48.06-.93.14-1.85.17-2.78.02-.72-.08-1.5-.73-1.94-.47-.32-1.19-.37-1.59.09-.45.51-.44,1.37-.22,1.97.14.37.7.54.91.12.37-.73.71-1.47,1.04-2.21l-.91-.12c.27.97,1.08,6.95-1.02,6.49-.46-.1-.74.34-.56.73.51,1.19,1.52,2.06,2.75,2.44.29.09.66-.16.63-.48-.13-1.79-.25-3.58-.38-5.36-.03-.39-.55-.71-.85-.35-1.19,1.39-1.59,3.31-.95,5.05.13.35.73.56.91.12.98-2.32,1.31-4.77.96-7.26-.08-.56-1.01-.43-.98.13.11,1.92.04,3.85-.23,5.75l.98.13c-.14-1.88-.3-3.77-.8-5.6-.16-.57-.94-.41-.98.13-.08.92-.36,1.8-.83,2.6-.36.61-1.26,1.24-1.02,2.03.21.72,1.06,1.41,1.6,1.89.65.57,1.36,1.07,2.12,1.49.31.17.78-.04.75-.43-.1-1.33-.25-2.75-.65-4.03-.44-1.4-1.69-.28-2.41.22l.68.18c-.18-.28-.39-.48-.68-.64-.32-.17-.76.04-.75.43.03,1.3.54,2.51,1.48,3.42l.22-.84-1.08.21c-.34.07-.43.47-.3.73.25.5.6.88,1.06,1.19.54.36,1.04-.51.5-.86-.32-.22-.53-.49-.71-.83l-.3.73,1.08-.21c.37-.07.48-.59.22-.84-.75-.73-1.16-1.66-1.19-2.71l-.75.43c.14.05.25.15.33.28.14.21.45.34.68.18.34-.24.7-.6,1.08-.76l-.15-.06c.03.11.06.23.08.34.05.23.11.45.15.68.19.91.31,1.82.38,2.74l.75-.43c-.69-.38-1.33-.81-1.92-1.33-.31-.27-.6-.56-.87-.87-.11-.12-.29-.27-.35-.42-.11-.26.03-.37.2-.58.93-1.13,1.44-2.49,1.57-3.94l-.98.13c.48,1.74.63,3.54.77,5.33.04.52.9.73.98.13.29-2,.38-4,.27-6.02l-.98.13c.3,2.19,0,4.45-.86,6.49l.91.12c-.51-1.39-.28-2.94.69-4.07l-.85-.35c.13,1.79.25,3.58.38,5.36l.63-.48c-1-.31-1.74-1.02-2.15-1.98l-.56.73c1.54.33,2.4-1.09,2.54-2.42.18-1.73.17-3.61-.3-5.3-.11-.38-.73-.53-.91-.12-.33.75-.67,1.49-1.04,2.21l.91.12c-.08-.21-.28-.95.07-1.05.51-.14.51.92.5,1.19-.03.93-.11,1.86-.17,2.78l.63-.48c-.64-.24-.74-1.24-.93-1.8-.2-.59-.47-1.15-.79-1.68-.68-1.12-1.57-2.1-2.47-3.04-1.79-1.86-3.88-3.71-4.33-6.38-.11-.63-1.07-.36-.96.27h0Z"/>
    <path d="M685.45,148.62c-.11,1.45,0,2.89.31,4.31.08.37.58.48.84.22,1.39-1.41,2.65-2.94,3.79-4.55.24-.34-.09-.72-.43-.75-1.04-.11-1.98.57-2.75,1.18s-1.27,1.57-.74,2.48c.17.3.71.35.86,0,1-2.23,1.55-4.62,1.59-7.07.01-.64-.99-.64-1,0-.04,2.26-.53,4.5-1.46,6.56h.86c-.34-.59.39-1.13.81-1.43.55-.39,1.12-.81,1.82-.73l-.43-.75c-1.09,1.55-2.31,3-3.64,4.35l.84.22c-.29-1.33-.38-2.69-.27-4.05.05-.64-.95-.64-1,0h0Z"/>
    <path d="M680.25,143.18c-.04.59.18,1.13.64,1.5.22.18.64.22.79-.1,1.06-2.46,1.44-5.08,1.78-7.72h-1c-.32,2.61-.41,5.23-.3,7.85.02.56.07,1.19-.2,1.71-.12.24-.29.42-.54.52-.2.08-.41.1-.58.25-.73.67.28,1.83.81,2.28.49.42,1.2-.29.71-.71-.2-.17-.86-.73-.73-1.05l-.23.3c.33-.2.69-.24.99-.52.27-.25.47-.58.59-.92.34-.92.16-1.98.14-2.93-.05-2.26.07-4.53.34-6.78.08-.64-.92-.63-1,0-.32,2.44-.66,4.93-1.64,7.21l.79-.1c-.27-.22-.37-.45-.35-.79.05-.64-.95-.64-1,0h0Z"/>
    <path d="M682.25,148.23v-1.64c0-.26-.23-.51-.5-.5s-.5.22-.5.5v1.64c0,.26.23.51.5.5s.5-.22.5-.5h0Z"/>
  </g>
</svg>